{"glyphs":{":":{"x_min":0,"x_max":220,"ha":220,"o":"m 57 368 q 57 390 73 406 q 89 421 111 421 q 133 421 148 406 q 164 390 164 368 q 164 346 148 330 q 133 313 111 313 q 89 313 73 330 q 57 346 57 368 z m 57 44 q 57 66 73 82 q 89 97 111 97 q 133 97 148 82 q 164 66 164 44 q 164 22 148 6 q 133 -11 111 -11 q 89 -11 73 6 q 57 22 57 44 z"},"$":{"x_min":0,"x_max":486,"ha":486,"o":"m 285 667 q 291 667 305 666 q 319 665 319 660 l 312 618 q 329 614 348 609 q 367 604 393 598 q 400 568 402 536 q 403 505 404 483 q 404 478 404 474 q 404 469 404 465 q 397 461 387 461 q 378 461 373 466 q 370 491 352 522 q 335 554 305 573 l 268 347 q 270 346 272 345 q 273 344 274 343 q 297 328 326 311 q 354 294 380 272 q 405 251 422 224 q 438 197 438 162 q 438 110 410 72 q 382 33 337 12 q 292 -10 241 -10 q 233 -10 225 -10 q 217 -9 209 -8 l 202 -51 q 195 -51 182 -49 q 168 -47 168 -42 l 174 -4 q 146 1 120 8 q 94 14 72 18 q 66 46 61 77 q 56 108 53 132 q 50 156 50 161 q 53 164 61 166 q 69 169 74 169 q 83 169 85 164 q 88 153 96 128 q 105 102 125 76 q 145 50 181 35 l 221 277 q 186 298 150 322 q 115 347 91 380 q 67 414 67 459 q 67 509 94 546 q 120 583 162 604 q 204 624 251 624 q 259 624 266 624 q 272 624 278 623 z m 253 259 l 215 26 q 222 25 229 24 q 236 23 243 23 q 287 23 321 52 q 355 82 355 137 q 355 172 341 193 q 327 214 304 229 q 281 244 253 259 z m 236 367 l 272 588 q 265 590 258 591 q 252 592 245 592 q 204 592 182 576 q 160 559 152 535 q 143 511 143 488 q 143 443 171 416 q 199 390 236 367 z"},"?":{"x_min":0,"x_max":347,"ha":347,"o":"m 98 535 q 88 535 72 548 q 55 560 55 584 q 55 609 63 620 q 77 627 110 627 q 134 627 166 615 q 199 603 230 580 q 262 556 282 522 q 303 489 303 446 q 303 397 281 363 q 259 329 204 297 q 191 289 174 276 q 158 264 144 253 q 131 242 128 236 q 123 226 122 211 q 121 196 122 182 q 122 178 122 174 q 122 171 122 168 q 119 162 116 159 q 113 156 106 155 q 98 158 94 166 q 90 182 88 209 q 86 236 86 255 q 86 291 100 314 q 113 336 132 350 q 151 365 169 376 q 205 399 230 420 q 254 441 254 476 q 254 514 232 535 q 210 556 182 556 q 156 556 142 551 q 129 546 120 540 q 111 535 98 535 z m 62 44 q 62 66 78 82 q 94 97 116 97 q 138 97 154 82 q 169 66 169 44 q 169 22 154 6 q 138 -11 116 -11 q 94 -11 78 6 q 62 22 62 44 z"},"<":{"x_min":0,"x_max":480,"ha":480,"o":"m 434 34 q 434 31 432 19 q 429 7 425 -4 q 421 -15 418 -15 q 417 -15 413 -13 l 47 173 q 36 179 32 189 q 29 199 29 212 q 29 220 34 226 q 40 231 47 235 l 407 418 q 411 420 412 420 q 414 420 419 410 q 424 401 429 374 q 430 370 428 368 q 426 365 426 365 l 107 204 l 431 40 q 431 40 432 39 q 434 38 434 34 z"},"'":{"x_min":0,"x_max":156,"ha":156,"o":"m 89 683 q 104 683 114 670 q 114 660 113 636 q 112 613 110 584 q 108 555 106 527 q 103 499 101 480 q 96 469 81 462 q 75 462 72 468 q 56 521 47 558 q 38 594 38 614 q 38 628 44 644 q 51 660 62 672 q 74 683 89 683 z"},"=":{"x_min":0,"x_max":551,"ha":551,"o":"m 467 258 l 71 258 q 65 258 66 270 q 68 283 74 296 q 79 310 86 312 l 480 312 q 487 312 486 300 q 485 288 480 275 q 474 262 467 258 z m 467 117 l 71 117 q 65 117 66 130 q 68 142 74 156 q 79 169 86 171 l 480 171 q 487 171 486 159 q 485 147 480 134 q 474 121 467 117 z"},"a":{"x_min":0,"x_max":438,"ha":438,"o":"m 298 425 q 324 425 342 421 q 360 417 374 412 l 314 104 q 313 99 311 85 q 309 71 310 60 q 312 48 320 48 q 331 48 346 62 q 362 75 375 89 q 388 103 389 104 q 391 104 394 98 q 398 91 398 86 q 394 79 380 64 q 367 49 348 33 q 329 17 308 6 q 288 -6 271 -6 q 255 -6 246 8 q 237 23 237 45 q 237 51 239 66 q 241 81 244 97 q 246 111 247 116 q 248 122 249 127 q 242 114 226 92 q 211 70 191 48 q 171 26 148 10 q 126 -5 105 -5 q 65 -5 42 27 q 19 59 19 110 q 19 174 46 231 q 72 288 114 332 q 156 375 204 400 q 253 425 298 425 z m 253 386 q 225 386 196 365 q 168 344 144 308 q 120 273 106 231 q 91 189 91 147 q 91 101 104 76 q 116 52 141 52 q 159 52 180 72 q 201 92 220 124 q 240 157 255 195 q 270 233 277 268 l 298 371 q 291 379 277 382 q 263 386 253 386 z"},"L":{"x_min":0,"x_max":517,"ha":517,"o":"m 162 109 q 161 102 158 86 q 155 70 154 56 q 152 42 154 39 q 162 32 176 30 q 189 29 217 29 l 269 29 q 295 29 324 36 q 352 43 374 56 q 396 69 418 94 q 439 119 457 158 q 460 164 472 164 q 479 164 486 162 q 493 160 494 158 q 474 118 449 73 q 424 28 413 -4 q 339 -4 267 -2 q 195 0 104 0 q 72 0 47 -2 q 22 -3 -4 -3 q -7 1 -5 11 q -3 21 1 25 q 7 25 22 26 q 37 28 51 32 q 65 36 67 41 q 73 53 77 72 q 81 91 85 113 l 166 530 q 166 531 167 533 q 171 554 174 572 q 177 591 176 603 q 176 609 164 612 q 151 615 137 616 q 123 618 117 618 q 115 622 116 632 q 118 642 122 646 q 150 645 176 644 q 202 642 228 642 q 254 642 280 644 q 307 645 335 646 q 338 642 336 632 q 334 622 330 618 q 325 618 310 616 q 294 615 280 612 q 267 609 264 603 q 258 591 254 572 q 250 552 246 530 z"},"3":{"x_min":0,"x_max":532,"ha":532,"o":"m 275 627 q 300 627 330 612 q 360 598 382 570 q 403 542 403 502 q 403 471 388 445 q 372 419 350 400 q 329 381 312 370 q 340 366 372 347 q 404 328 426 294 q 449 261 449 213 q 449 163 428 122 q 406 82 370 54 q 335 25 291 10 q 247 -5 201 -5 q 182 -5 154 0 q 125 6 102 18 q 98 21 90 32 q 82 43 82 55 q 82 76 94 89 q 107 102 123 102 q 143 102 154 86 q 166 71 178 59 q 192 45 212 40 q 231 34 250 34 q 276 34 302 48 q 329 63 347 96 q 365 130 365 186 q 365 226 347 256 q 329 287 300 305 q 272 323 240 323 q 224 323 208 318 q 191 313 182 311 q 176 319 176 330 q 176 337 178 340 q 217 349 252 367 q 287 385 308 414 q 330 442 330 484 q 330 523 303 549 q 276 575 234 575 q 203 575 180 560 q 157 546 144 530 q 130 515 125 511 q 121 511 117 518 q 113 525 113 532 q 128 555 152 576 q 175 598 206 612 q 237 627 275 627 z"},";":{"x_min":0,"x_max":226,"ha":226,"o":"m 124 120 q 137 120 149 113 q 154 104 160 88 q 167 73 167 45 q 167 24 156 -3 q 146 -30 128 -56 q 111 -83 91 -104 q 71 -126 52 -136 q 47 -136 42 -128 q 37 -119 37 -115 q 47 -107 62 -94 q 76 -81 88 -60 q 99 -38 99 -7 q 99 9 91 20 q 83 30 74 42 q 66 53 66 72 q 66 88 82 104 q 98 120 124 120 z m 60 368 q 60 390 76 406 q 92 421 114 421 q 136 421 152 406 q 167 390 167 368 q 167 346 152 330 q 136 313 114 313 q 92 313 76 330 q 60 346 60 368 z"},"J":{"x_min":0,"x_max":305,"ha":305,"o":"m 160 530 q 161 534 162 538 q 162 541 163 544 q 166 562 168 578 q 170 593 169 603 q 169 609 156 612 q 143 615 129 616 q 115 618 109 618 q 107 622 109 632 q 111 642 115 646 q 143 645 169 644 q 195 642 221 642 q 247 642 274 644 q 301 645 329 646 q 332 642 330 632 q 327 622 323 618 q 318 618 302 616 q 287 615 274 612 q 260 609 257 603 q 251 591 247 572 q 243 552 239 530 l 160 113 q 142 16 110 -50 q 78 -115 40 -154 q 1 -194 -36 -211 q -74 -228 -103 -228 q -104 -226 -104 -222 q -105 -219 -105 -215 q -105 -213 -104 -211 q -104 -209 -104 -209 q -50 -192 -15 -154 q 20 -116 42 -52 q 65 12 82 106 z"},"V":{"x_min":0,"x_max":582,"ha":582,"o":"m 171 642 q 201 642 229 644 q 257 645 285 646 q 286 642 284 630 q 281 619 278 618 q 275 618 261 616 q 247 613 234 606 q 220 600 217 586 q 216 579 216 561 q 216 543 220 517 q 223 495 228 458 q 234 422 240 378 q 247 334 254 290 q 260 245 266 208 q 272 171 276 148 q 279 126 279 125 q 280 126 292 148 q 305 169 324 204 q 344 238 368 279 q 391 320 414 361 q 437 402 456 436 q 476 471 488 492 q 499 512 499 512 q 521 549 526 580 q 529 596 518 604 q 507 612 494 615 q 480 618 474 618 q 471 620 473 631 q 475 642 479 646 q 504 645 527 644 q 550 642 575 642 q 596 642 609 642 q 622 643 634 644 q 646 645 664 646 q 666 642 663 630 q 660 618 658 618 q 653 618 631 613 q 609 608 594 593 q 584 583 565 552 q 546 522 530 494 l 263 31 q 252 12 242 5 q 231 -2 222 -2 q 219 -2 218 4 q 217 11 216 14 q 202 101 190 176 q 179 252 167 330 q 155 408 139 502 q 135 531 130 554 q 124 577 116 596 q 113 604 102 609 q 90 614 78 616 q 67 618 61 618 q 60 618 63 632 q 66 645 67 646 q 98 645 119 644 q 140 642 171 642 z"},"\"":{"x_min":0,"x_max":273,"ha":273,"o":"m 89 683 q 104 683 114 670 q 114 660 113 636 q 112 613 110 584 q 108 555 106 527 q 103 499 101 480 q 96 469 81 462 q 75 462 72 468 q 56 521 47 558 q 38 594 38 614 q 38 628 44 644 q 51 660 62 672 q 74 683 89 683 z m 206 683 q 221 683 231 670 q 231 660 230 636 q 229 613 227 584 q 225 555 222 527 q 220 499 218 480 q 213 469 198 462 q 192 462 189 468 q 173 521 164 558 q 155 594 155 614 q 155 628 162 644 q 168 660 180 672 q 191 683 206 683 z"},"7":{"x_min":0,"x_max":532,"ha":532,"o":"m 398 618 q 417 618 439 620 q 461 621 465 621 q 471 621 471 612 q 471 602 462 584 q 453 567 443 547 l 186 -2 q 183 -5 176 -5 q 165 -5 149 0 q 133 6 133 13 q 158 51 188 105 q 218 159 250 219 q 281 279 310 337 q 338 395 360 442 q 383 490 396 518 q 410 547 410 547 l 162 547 q 133 547 118 529 q 103 511 92 472 q 91 466 80 466 q 77 466 70 468 q 64 470 61 472 q 74 512 86 554 q 97 595 102 618 z"},"S":{"x_min":0,"x_max":460,"ha":460,"o":"m 304 650 q 347 650 374 643 q 402 636 438 627 q 437 611 433 583 q 429 555 425 528 q 421 501 418 486 q 417 481 414 480 q 410 479 408 479 q 405 479 398 480 q 392 482 387 486 q 391 545 370 582 q 350 620 297 620 q 257 620 230 602 q 203 585 190 559 q 176 533 176 508 q 176 468 193 442 q 210 415 236 396 q 262 376 288 355 q 314 335 342 314 q 371 292 391 263 q 411 234 411 188 q 411 143 392 106 q 372 70 340 44 q 307 19 268 6 q 228 -8 188 -8 q 147 -8 110 4 q 73 17 45 33 q 39 60 36 92 q 33 124 32 149 q 32 174 33 180 q 35 183 44 184 q 52 186 57 186 q 64 186 67 180 q 67 160 74 133 q 82 106 98 80 q 113 55 138 38 q 164 21 200 21 q 233 21 261 36 q 289 50 306 78 q 324 105 324 144 q 324 179 311 204 q 298 228 277 248 q 256 268 231 287 q 202 311 171 332 q 140 354 120 384 q 99 415 99 465 q 99 507 118 541 q 137 575 168 600 q 198 624 234 637 q 270 650 304 650 z"},"}":{"x_min":0,"x_max":397,"ha":397,"o":"m 208 -225 q 205 -187 176 -138 q 151 -97 143 -54 q 135 -10 142 36 q 155 122 216 166 q 155 208 142 296 q 135 342 143 386 q 151 429 176 470 q 205 519 208 556 q 212 626 144 702 q 135 714 145 726 q 156 737 168 726 q 246 660 249 533 q 249 477 220 398 q 207 361 198 336 q 190 310 188 294 q 179 229 256 182 l 256 150 q 179 103 188 38 q 192 9 220 -66 q 251 -144 249 -201 q 248 -328 168 -395 q 156 -405 145 -394 q 135 -384 144 -371 q 212 -295 208 -225 z"},"Z":{"x_min":0,"x_max":587,"ha":587,"o":"m 273 614 q 227 614 188 577 q 148 540 122 480 q 120 477 112 477 q 106 477 98 480 q 91 482 89 484 q 107 518 122 561 q 138 604 152 653 q 166 651 186 648 q 207 646 225 646 l 402 646 q 440 646 469 647 q 498 648 527 650 q 556 652 594 655 q 597 654 602 647 q 608 640 606 634 q 605 632 582 603 q 559 574 519 526 q 479 478 428 417 q 378 356 321 289 q 264 222 208 156 q 151 89 100 31 l 339 31 q 373 31 400 47 q 427 63 446 83 q 465 103 478 126 q 491 149 501 168 q 502 170 506 170 q 510 171 514 171 q 521 171 527 168 q 533 165 535 162 q 517 124 504 96 q 492 69 482 47 q 473 25 463 0 l 4 0 q -3 0 -8 5 q -13 10 -9 14 l 497 615 z"},"x":{"x_min":0,"x_max":470,"ha":470,"o":"m 288 87 q 291 72 298 62 q 306 51 322 51 q 331 51 346 62 q 361 72 375 84 q 389 97 394 104 q 396 104 400 97 q 403 90 403 86 q 400 81 388 66 q 375 52 357 36 q 339 19 320 8 q 300 -4 284 -4 q 262 -4 244 18 q 225 41 217 80 l 200 164 q 176 117 157 78 q 138 40 118 18 q 98 -5 71 -5 q 61 -5 49 -2 q 37 0 25 7 q 21 13 18 21 q 15 29 15 40 q 15 57 25 70 q 35 83 51 83 q 61 83 67 76 q 73 70 80 63 q 86 56 96 55 q 107 54 114 61 q 120 68 125 77 q 145 110 160 138 q 174 165 192 200 l 165 334 q 162 350 155 360 q 148 371 134 371 q 124 371 108 360 q 93 349 80 336 q 66 323 60 316 q 58 316 54 324 q 50 331 50 335 q 53 340 66 354 q 78 369 96 386 q 114 402 134 414 q 153 425 169 425 q 192 425 210 403 q 229 381 236 341 l 250 274 q 272 317 290 351 q 307 385 326 405 q 344 425 369 425 q 380 425 392 423 q 403 421 415 413 q 420 407 423 399 q 426 391 426 380 q 426 363 416 350 q 407 337 390 337 q 380 337 374 344 q 368 350 362 357 q 356 364 345 365 q 334 366 327 359 q 320 352 315 343 q 298 314 285 290 q 272 267 257 238 z"},")":{"x_min":0,"x_max":458,"ha":458,"o":"m 238 166 q 238 300 202 426 q 150 611 44 696 l 58 717 q 116 671 165 611 q 312 430 312 166 q 312 43 276 -68 q 213 -264 58 -386 l 44 -369 q 125 -298 175 -173 q 238 -12 238 166 z"},"&":{"x_min":0,"x_max":762,"ha":762,"o":"m 408 523 q 442 523 466 499 q 490 475 490 441 q 490 403 470 372 q 451 342 420 318 q 388 295 352 278 q 315 261 279 249 q 243 237 216 231 q 220 128 268 77 q 316 26 400 26 q 445 26 487 48 q 529 69 556 106 q 583 143 583 188 q 583 201 578 214 q 573 228 568 232 q 544 224 518 211 q 492 198 474 181 q 457 164 457 142 q 457 127 461 120 q 458 119 452 120 q 445 121 441 125 q 433 132 427 148 q 421 163 421 181 q 421 214 450 238 q 479 263 533 286 q 566 300 600 320 q 635 341 664 370 q 692 399 708 438 q 723 478 720 529 q 727 530 732 526 q 737 523 739 521 q 748 504 754 482 q 761 461 761 430 q 761 372 726 328 q 690 283 639 258 q 645 246 645 223 q 645 179 622 138 q 600 97 561 65 q 522 33 472 14 q 423 -5 369 -5 q 306 -5 254 16 q 201 37 170 84 q 138 132 136 212 q 98 202 70 188 q 42 174 42 150 q 42 137 49 131 q 56 125 62 120 q 69 114 74 107 q 80 100 80 88 q 80 67 67 56 q 54 46 37 46 q 22 46 13 51 q 3 59 -2 76 q -7 92 -7 104 q -7 150 20 184 q 48 217 100 232 q 108 234 117 236 q 126 239 137 242 q 141 293 162 343 q 184 393 220 434 q 256 474 304 498 q 352 523 408 523 z m 216 267 q 260 282 302 304 q 344 326 372 356 q 399 386 399 425 q 399 451 388 466 q 378 482 350 482 q 318 482 288 454 q 259 427 239 378 q 219 330 216 267 z"},"_":{"x_min":0,"x_max":493,"ha":493,"o":"m 14 -32 q 14 -32 16 -20 q 17 -9 20 2 q 23 13 28 13 l 467 13 q 471 13 471 8 q 471 1 468 -10 q 466 -20 461 -36 q 460 -40 458 -41 q 455 -42 455 -42 l 21 -42 q 21 -42 18 -40 q 14 -39 14 -32 z"},"v":{"x_min":0,"x_max":428,"ha":428,"o":"m 182 63 q 217 93 239 118 q 261 142 276 166 q 292 191 307 221 q 321 247 326 278 q 331 309 331 325 q 331 341 325 358 q 319 374 306 387 q 311 400 323 412 q 335 425 352 425 q 380 425 392 403 q 405 381 405 347 q 405 316 388 278 q 372 241 344 201 q 317 161 284 124 q 251 87 218 58 q 184 29 156 12 q 129 -6 112 -6 q 109 -3 108 16 q 106 36 106 62 q 105 87 104 110 q 104 134 104 145 l 104 347 q 104 348 104 349 q 104 356 103 364 q 102 371 95 371 q 85 371 69 358 q 53 344 40 330 q 28 316 26 314 q 24 314 20 322 q 17 329 17 333 q 21 340 34 355 q 47 370 65 386 q 83 402 103 414 q 123 425 140 425 q 156 425 167 410 q 178 394 178 372 l 178 172 q 178 141 179 110 q 180 79 182 63 z"},"O":{"x_min":0,"x_max":693,"ha":693,"o":"m 405 649 q 482 649 538 612 q 595 576 626 514 q 656 451 656 373 q 656 287 629 216 q 602 146 554 95 q 507 44 445 16 q 383 -11 312 -11 q 233 -11 176 26 q 120 64 90 127 q 60 190 60 267 q 60 351 88 421 q 117 491 166 542 q 215 593 276 621 q 338 649 405 649 z m 396 620 q 350 620 306 593 q 262 566 227 518 q 192 469 172 404 q 151 339 151 262 q 151 220 158 177 q 166 134 185 98 q 204 62 237 40 q 270 18 320 18 q 376 18 421 50 q 466 82 498 136 q 530 189 547 254 q 564 318 564 384 q 564 419 557 460 q 550 501 532 538 q 514 574 481 597 q 448 620 396 620 z"},"(":{"x_min":0,"x_max":458,"ha":458,"o":"m 220 166 q 220 -12 283 -173 q 332 -297 415 -369 l 400 -386 q 245 -264 182 -68 q 146 43 146 166 q 146 428 294 611 q 318 640 344 667 q 371 694 400 717 l 415 696 q 308 610 256 426 q 220 300 220 166 z"},"C":{"x_min":0,"x_max":629,"ha":629,"o":"m 556 169 q 566 169 574 165 q 583 161 583 161 q 582 154 573 134 q 564 114 552 91 q 540 68 530 50 q 519 32 513 27 q 473 7 429 0 q 385 -8 322 -8 q 243 -8 184 28 q 124 65 91 126 q 58 187 58 259 q 58 351 91 424 q 124 497 180 548 q 236 599 307 626 q 378 652 454 650 q 497 649 536 642 q 575 634 611 625 q 610 608 608 579 q 607 550 606 523 q 604 496 602 482 q 602 478 594 478 q 590 478 584 478 q 577 479 571 482 q 574 521 554 552 q 535 584 501 602 q 467 620 426 620 q 350 620 287 578 q 224 536 187 458 q 150 381 150 275 q 150 232 161 187 q 172 142 196 104 q 219 67 257 44 q 295 21 350 21 q 400 21 438 42 q 477 62 506 96 q 535 129 556 169 z"},"W":{"x_min":0,"x_max":821,"ha":821,"o":"m 168 642 q 198 642 224 644 q 251 645 279 646 q 280 642 277 630 q 274 619 271 618 q 268 618 254 616 q 240 613 226 606 q 213 600 210 586 q 208 574 211 532 q 214 491 218 426 q 223 362 229 288 q 235 214 241 141 l 465 614 q 472 628 484 637 q 497 646 504 646 q 508 646 512 631 q 513 625 516 592 q 520 558 526 506 q 532 453 540 391 q 547 329 554 264 q 562 199 569 141 l 737 512 q 745 529 752 548 q 758 567 760 580 q 763 596 752 604 q 740 612 726 615 q 711 618 705 618 q 702 620 704 631 q 707 642 711 646 q 736 645 760 644 q 783 642 808 642 q 829 642 842 642 q 855 643 868 644 q 880 645 898 646 q 900 642 896 630 q 893 618 891 618 q 886 618 865 612 q 844 606 828 593 q 817 584 806 566 q 795 549 781 519 l 553 31 q 547 18 534 8 q 521 -2 512 -2 q 509 -2 508 4 q 506 11 506 14 q 498 83 491 141 q 484 199 477 254 q 470 309 462 368 q 455 428 446 499 l 224 31 q 218 18 206 8 q 193 -2 184 -2 q 181 -2 179 4 q 177 11 177 14 l 130 520 q 128 549 126 568 q 125 586 114 599 q 107 609 90 614 q 72 618 64 618 q 63 618 66 632 q 69 645 70 646 q 101 645 119 644 q 137 642 168 642 z"},"A":{"x_min":0,"x_max":572,"ha":572,"o":"m 333 25 q 359 25 374 33 q 389 41 389 56 q 389 64 388 77 q 388 90 386 104 l 364 250 l 170 250 q 145 205 126 170 q 107 135 100 122 q 87 97 80 78 q 72 60 72 49 q 72 39 86 34 q 99 28 114 26 q 129 25 132 25 q 134 23 132 12 q 130 2 128 -3 q 110 -2 98 -1 q 87 0 74 1 q 62 2 42 2 q 21 2 8 1 q -6 0 -20 -1 q -33 -2 -54 -3 q -55 -1 -53 10 q -51 20 -48 25 q -40 25 -21 30 q -2 34 7 44 q 25 63 39 86 q 53 110 68 136 l 337 619 q 344 631 357 639 q 370 647 376 647 q 379 647 381 645 l 465 123 q 470 95 473 78 q 476 60 477 57 q 480 43 494 36 q 507 29 521 27 q 535 25 538 25 q 540 20 538 10 q 537 -1 535 -3 q 508 -1 483 0 q 458 2 428 2 q 397 2 378 0 q 359 -1 327 -3 q 324 1 326 11 q 329 21 333 25 z m 188 282 l 359 282 l 321 522 z"},"f":{"x_min":0,"x_max":289,"ha":289,"o":"m 328 669 q 349 669 362 662 q 376 655 381 645 l 381 636 q 380 620 373 605 q 366 590 352 590 q 339 590 330 596 q 322 603 314 612 q 309 617 303 622 q 297 627 286 627 q 258 627 240 573 q 221 519 198 403 l 296 403 q 299 403 300 400 q 301 396 301 392 q 301 385 298 379 q 296 373 292 367 l 191 367 q 191 367 188 346 q 184 324 178 288 q 171 252 164 209 q 156 166 148 122 q 141 79 134 42 q 119 -38 86 -99 q 53 -160 12 -194 q -29 -228 -68 -228 q -89 -228 -102 -220 q -116 -213 -121 -203 q -121 -199 -121 -196 q -121 -192 -120 -188 q -118 -173 -112 -160 q -105 -148 -92 -148 q -79 -148 -71 -155 q -63 -162 -55 -171 q -50 -176 -43 -181 q -36 -186 -26 -186 q 3 -186 22 -132 q 40 -78 62 38 l 120 367 l 37 367 q 35 367 35 370 q 35 378 50 390 q 64 403 80 403 l 126 403 q 142 483 174 543 q 207 603 248 636 q 289 669 328 669 z"},"Q":{"x_min":0,"x_max":693,"ha":693,"o":"m 405 649 q 482 649 538 612 q 595 576 626 514 q 656 451 656 373 q 656 273 619 194 q 582 114 519 63 q 456 12 377 -4 q 413 -25 438 -42 q 462 -59 490 -69 q 517 -79 561 -79 q 588 -79 616 -73 q 645 -67 650 -66 q 655 -66 662 -71 q 669 -76 669 -79 q 627 -100 583 -116 q 539 -133 497 -133 q 461 -133 430 -118 q 398 -102 366 -80 q 334 -57 299 -34 q 264 -11 222 4 q 144 32 102 104 q 60 175 60 267 q 60 351 88 421 q 117 491 166 542 q 215 593 276 621 q 338 649 405 649 z m 396 620 q 350 620 306 593 q 262 566 227 518 q 192 469 172 404 q 151 339 151 262 q 151 220 158 177 q 166 134 185 98 q 204 62 237 40 q 270 18 320 18 q 376 18 421 50 q 466 82 498 136 q 530 189 547 254 q 564 318 564 384 q 564 419 557 460 q 550 501 532 538 q 514 574 481 597 q 448 620 396 620 z"},"w":{"x_min":0,"x_max":614,"ha":614,"o":"m 376 366 q 377 346 378 314 q 378 282 380 246 q 381 210 382 179 q 384 148 386 117 q 389 86 396 74 q 435 108 460 143 q 485 178 501 224 q 512 252 514 280 q 515 309 515 325 q 515 341 508 358 q 502 374 489 387 q 494 400 506 412 q 518 425 535 425 q 563 425 576 403 q 589 381 589 347 q 589 310 569 264 q 549 217 518 170 q 486 123 450 83 q 415 43 383 18 q 351 -6 331 -6 q 328 -3 325 16 q 322 36 319 62 q 316 88 314 112 q 312 135 312 146 q 311 165 310 187 q 310 209 310 209 q 286 174 258 136 q 230 99 202 66 q 174 34 150 14 q 127 -6 112 -6 q 109 -3 108 16 q 106 36 106 62 q 105 87 104 110 q 104 134 104 145 l 104 347 q 104 348 104 349 q 104 356 103 364 q 102 371 95 371 q 85 371 69 358 q 53 344 40 330 q 28 316 26 314 q 24 314 20 322 q 17 329 17 333 q 21 340 34 355 q 47 370 65 386 q 83 402 103 414 q 123 425 140 425 q 156 425 167 410 q 178 394 178 372 l 178 172 q 178 141 179 122 q 180 104 182 88 q 204 112 226 144 q 248 175 266 204 q 283 234 292 249 q 309 281 318 302 q 327 323 334 339 q 340 347 353 356 q 366 364 376 366 z"},"-":{"x_min":0,"x_max":368,"ha":368,"o":"m 69 255 q 69 255 90 256 q 111 257 143 259 q 175 261 208 262 q 242 264 268 266 q 295 267 305 267 q 312 267 312 258 q 312 233 299 205 q 276 204 238 202 q 199 200 154 198 q 108 196 63 194 q 57 194 57 205 q 57 219 60 232 q 64 244 69 255 z"},"E":{"x_min":0,"x_max":541,"ha":541,"o":"m 228 642 q 292 642 370 645 q 447 648 521 648 q 520 623 520 602 q 520 580 520 559 q 521 548 521 538 q 521 527 521 516 q 516 511 504 511 q 493 511 493 518 q 489 577 466 596 q 443 615 407 615 l 329 615 q 324 615 310 614 q 295 614 282 612 q 268 609 265 604 q 259 592 254 573 q 249 554 245 534 l 209 347 q 208 343 220 342 q 232 341 247 341 l 295 341 q 328 341 346 343 q 364 345 374 352 q 383 359 390 373 q 398 387 408 411 q 411 418 424 418 q 435 418 438 413 l 402 229 q 398 225 387 225 q 375 225 374 232 q 372 274 369 286 q 366 297 361 301 q 357 305 340 306 q 324 308 304 308 q 284 309 267 309 q 255 309 239 308 q 223 308 212 306 q 200 305 199 300 l 161 106 q 160 99 157 84 q 154 68 153 55 q 152 42 154 39 q 162 32 176 30 q 189 29 217 29 l 260 29 q 335 29 381 60 q 401 74 420 96 q 439 119 457 158 q 460 164 472 164 q 489 164 493 158 q 473 118 448 73 q 423 28 412 -4 q 338 -4 266 -2 q 195 0 104 0 q 72 0 46 -2 q 21 -3 -5 -3 q -8 1 -6 11 q -4 21 0 25 q 6 25 21 26 q 36 28 50 32 q 63 36 66 41 q 72 53 76 72 q 81 91 85 113 l 166 530 q 171 552 174 572 q 177 591 175 603 q 175 609 162 612 q 149 615 135 616 q 121 618 115 618 q 113 622 115 632 q 117 642 121 646 q 149 645 176 644 q 202 642 228 642 z"},"s":{"x_min":0,"x_max":314,"ha":314,"o":"m 194 428 q 223 428 242 422 q 262 415 278 401 q 282 396 285 386 q 288 375 288 370 q 288 354 279 342 q 270 330 255 330 q 242 330 230 340 q 219 351 209 364 q 201 376 192 386 q 184 395 163 395 q 138 395 126 376 q 115 356 115 340 q 115 311 136 286 q 158 262 180 236 q 203 210 221 180 q 239 151 239 114 q 239 60 200 27 q 160 -6 98 -6 q 76 -6 54 0 q 31 7 12 23 q 10 27 6 36 q 2 46 2 53 q 2 74 12 86 q 23 98 38 98 q 53 98 61 84 q 69 70 80 54 q 88 43 100 34 q 113 25 132 25 q 152 25 162 35 q 172 45 176 58 q 180 72 180 82 q 180 108 164 129 q 148 150 129 172 q 104 201 82 232 q 59 263 59 305 q 59 333 76 361 q 92 389 122 408 q 153 428 194 428 z"},">":{"x_min":0,"x_max":481,"ha":481,"o":"m 47 34 q 47 37 48 38 q 50 40 50 40 l 373 204 l 56 365 q 56 365 54 366 q 53 368 53 373 q 53 387 59 404 q 65 420 68 420 q 69 420 73 418 l 435 235 q 451 227 451 212 q 451 199 448 189 q 446 179 435 173 l 68 -13 q 64 -15 63 -15 q 60 -15 56 -4 q 52 6 50 18 q 47 30 47 34 z"},"l":{"x_min":0,"x_max":237,"ha":237,"o":"m 131 546 q 134 560 137 575 q 140 590 140 598 q 140 607 129 611 q 118 615 104 616 q 91 616 82 616 q 81 616 80 616 q 78 619 80 626 q 81 634 84 637 q 125 641 161 652 q 197 663 213 669 q 217 667 218 661 q 219 655 219 650 q 219 644 214 620 q 210 595 206 577 l 113 104 q 112 101 110 88 q 109 76 109 72 q 109 65 110 56 q 112 48 119 48 q 130 48 146 62 q 161 75 174 89 q 187 103 188 104 q 190 104 194 98 q 197 91 197 86 q 193 79 179 64 q 165 49 146 33 q 127 17 106 6 q 86 -6 69 -6 q 53 -6 44 8 q 36 23 36 45 q 36 51 38 66 q 40 81 43 97 z"},"8":{"x_min":0,"x_max":532,"ha":532,"o":"m 271 628 q 315 628 352 611 q 388 594 410 562 q 432 530 432 484 q 432 446 414 418 q 396 390 370 370 q 345 350 322 336 q 315 334 322 330 q 352 314 382 288 q 411 262 430 230 q 450 198 450 163 q 450 114 424 75 q 398 36 356 14 q 313 -9 264 -9 q 211 -9 170 11 q 128 31 105 67 q 82 103 82 150 q 82 182 96 208 q 110 234 131 254 q 152 274 174 288 q 195 302 209 311 q 213 314 209 316 q 189 328 166 350 q 142 373 126 403 q 109 433 109 469 q 109 511 132 547 q 154 583 191 606 q 228 628 271 628 z m 266 26 q 314 26 342 56 q 371 86 371 135 q 371 165 354 192 q 337 218 314 238 q 291 259 271 272 q 251 285 246 288 q 242 290 240 290 q 237 290 236 289 q 196 264 178 232 q 159 200 159 153 q 159 113 175 84 q 191 56 216 41 q 240 26 266 26 z m 266 594 q 231 594 206 562 q 182 530 182 486 q 182 449 200 424 q 217 398 241 382 q 265 366 283 355 q 285 354 289 354 q 290 354 290 354 q 293 354 295 355 q 325 375 343 405 q 361 435 361 475 q 361 504 350 531 q 338 558 317 576 q 296 594 266 594 z"},"\\":{"x_min":0,"x_max":344,"ha":344,"o":"m 43 702 q 54 702 63 699 q 73 696 77 693 q 82 690 82 688 l 330 -179 l 328 -181 q 326 -183 323 -184 q 317 -186 312 -186 q 298 -186 287 -178 q 275 -169 274 -164 l 30 693 q 33 702 43 702 z"},"e":{"x_min":0,"x_max":354,"ha":354,"o":"m 268 425 q 306 425 319 406 q 332 386 332 364 q 332 336 314 310 q 297 284 268 262 q 240 239 208 222 q 177 206 148 197 q 119 188 101 188 q 100 186 100 174 q 99 161 99 157 q 99 112 114 82 q 129 52 166 52 q 183 52 200 62 q 217 71 232 84 q 247 97 256 108 q 266 118 267 119 q 269 119 274 112 q 278 105 278 100 q 273 92 258 75 q 243 58 222 39 q 201 20 177 7 q 153 -6 130 -6 q 78 -6 50 31 q 22 68 22 136 q 22 190 44 242 q 67 294 103 335 q 139 376 182 400 q 226 425 268 425 z m 103 213 q 117 213 143 224 q 169 234 196 252 q 223 271 242 295 q 260 319 260 346 q 260 366 246 376 q 233 385 219 385 q 194 385 174 366 q 153 346 138 318 q 123 289 114 260 q 105 232 103 213 z"},"b":{"x_min":0,"x_max":418,"ha":418,"o":"m 140 278 q 174 335 208 367 q 241 399 268 412 q 296 425 311 425 q 345 425 362 394 q 379 364 379 314 q 379 248 356 190 q 332 132 295 88 q 258 44 215 19 q 172 -6 133 -6 q 92 -6 67 24 q 42 54 42 108 q 42 116 44 130 q 47 145 48 154 l 125 546 q 128 560 131 575 q 134 590 134 598 q 134 607 123 611 q 112 615 98 616 q 85 616 76 616 q 75 616 74 616 q 72 619 74 626 q 75 634 78 637 q 119 641 155 652 q 191 663 207 669 q 211 667 212 661 q 213 655 213 650 q 213 644 208 620 q 204 595 200 577 z m 269 371 q 253 371 230 352 q 208 333 184 302 q 161 270 142 231 q 123 192 115 152 q 103 93 114 60 q 126 26 160 26 q 185 26 207 46 q 229 66 247 98 q 265 130 278 166 q 292 203 300 237 q 307 271 307 295 q 307 322 301 346 q 295 371 269 371 z"},"%":{"x_min":0,"x_max":651,"ha":651,"o":"m 468 306 q 511 306 542 284 q 574 262 592 226 q 610 191 610 148 q 610 109 593 74 q 576 38 544 16 q 512 -7 467 -7 q 427 -7 394 14 q 360 35 340 70 q 320 105 320 148 q 320 192 339 228 q 358 263 392 284 q 425 306 468 306 z m 186 630 q 229 630 261 608 q 293 587 311 552 q 329 516 329 473 q 329 434 312 398 q 295 363 263 340 q 231 317 186 317 q 146 317 112 338 q 79 359 59 394 q 39 430 39 473 q 39 517 58 552 q 76 588 110 609 q 143 630 186 630 z m 182 606 q 153 606 136 588 q 118 569 110 541 q 102 513 102 484 q 102 451 114 418 q 126 385 146 364 q 167 342 191 342 q 220 342 236 361 q 252 380 258 408 q 265 437 265 465 q 265 498 255 530 q 245 563 226 584 q 208 606 182 606 z m 464 282 q 435 282 417 264 q 399 245 391 217 q 383 189 383 160 q 383 126 396 94 q 408 61 429 40 q 450 18 474 18 q 503 18 518 37 q 534 56 540 84 q 546 113 546 141 q 546 174 536 206 q 527 239 508 260 q 490 282 464 282 z m 584 609 l 112 0 q 109 -4 99 -8 q 89 -12 80 -12 q 70 -12 66 -7 q 63 -2 62 -1 l 533 609 q 537 614 543 618 q 549 621 553 621 q 574 621 576 618 q 577 616 584 609 z"},"m":{"x_min":0,"x_max":697,"ha":697,"o":"m 505 97 l 539 258 q 541 265 544 284 q 546 303 546 311 q 546 330 544 342 q 541 353 527 353 q 512 353 487 332 q 462 312 434 278 q 407 245 386 206 q 364 166 357 129 l 333 0 q 323 -1 316 -2 q 308 -3 297 -3 q 287 -3 280 -2 q 273 -1 263 0 l 317 277 q 319 289 320 298 q 321 307 321 314 q 321 353 302 353 q 286 353 261 330 q 236 307 210 271 q 183 235 163 194 q 143 154 135 119 l 110 0 q 95 -4 75 -4 q 65 -4 58 -2 q 50 -1 41 0 l 105 315 q 106 320 108 332 q 109 343 109 347 q 109 348 109 349 q 109 356 108 364 q 107 371 100 371 q 90 371 74 358 q 58 344 46 330 q 33 316 31 314 q 29 314 25 322 q 21 329 21 333 q 25 340 38 355 q 52 370 70 386 q 88 402 108 414 q 128 425 145 425 q 161 425 172 410 q 183 396 183 374 q 183 368 180 353 q 178 338 175 322 q 170 296 166 276 q 161 257 155 231 q 168 254 190 287 q 211 320 236 352 q 261 383 286 404 q 310 425 329 425 q 358 425 372 410 q 386 396 390 375 q 395 354 395 332 q 395 321 393 304 q 391 286 388 270 q 384 254 381 245 q 394 268 416 298 q 439 329 465 358 q 491 387 516 406 q 542 425 561 425 q 595 425 608 408 q 621 390 621 360 q 621 335 616 306 q 612 277 607 254 l 575 104 q 574 97 572 86 q 571 76 571 72 q 571 65 572 56 q 574 48 581 48 q 592 48 608 62 q 623 75 636 89 q 648 103 649 104 q 651 104 655 98 q 659 91 659 86 q 655 79 641 64 q 627 49 608 33 q 589 17 568 6 q 548 -6 531 -6 q 515 -6 506 8 q 498 23 498 45 q 498 51 500 66 q 502 81 505 97 z"},"#":{"x_min":0,"x_max":468,"ha":468,"o":"m 404 360 l 340 360 l 318 222 l 383 222 q 390 222 390 212 q 391 201 388 189 q 384 177 377 174 l 311 174 l 295 75 q 294 72 288 67 q 282 62 271 62 q 264 62 262 64 q 260 66 260 66 l 277 174 l 152 174 l 136 75 q 135 72 130 67 q 125 62 114 62 q 107 62 105 64 q 103 66 103 66 l 120 174 l 55 174 q 49 174 50 185 q 50 196 54 208 q 59 220 65 222 l 128 222 l 150 360 l 83 360 q 77 360 77 371 q 77 382 81 394 q 85 406 91 408 l 157 408 l 173 506 q 175 513 178 516 q 181 519 195 519 q 202 519 204 518 q 206 518 208 516 l 190 408 l 315 408 l 331 506 q 333 513 336 516 q 338 519 352 519 q 359 519 361 518 q 363 518 365 516 l 348 408 l 410 408 q 417 408 418 397 q 418 386 414 374 q 411 363 404 360 z m 183 360 l 160 222 l 285 222 l 307 360 z"},",":{"x_min":0,"x_max":196,"ha":196,"o":"m 104 120 q 117 120 129 113 q 134 104 140 88 q 146 73 146 45 q 146 24 136 -3 q 125 -30 108 -56 q 90 -83 70 -104 q 50 -126 31 -136 q 26 -136 22 -128 q 17 -119 17 -115 q 27 -107 42 -94 q 56 -81 67 -60 q 78 -38 78 -7 q 78 9 70 20 q 62 30 54 42 q 46 53 46 72 q 46 88 62 104 q 78 120 104 120 z"},"n":{"x_min":0,"x_max":485,"ha":485,"o":"m 175 322 l 157 240 q 161 247 176 268 q 190 289 212 316 q 233 342 258 367 q 282 392 306 408 q 330 425 349 425 q 383 425 396 408 q 409 390 409 360 q 409 338 405 308 q 401 279 396 254 l 363 104 q 362 97 360 86 q 359 76 359 72 q 359 65 360 56 q 362 48 369 48 q 380 48 396 62 q 411 75 424 89 q 437 103 438 104 q 440 104 444 98 q 447 91 447 86 q 443 79 429 64 q 415 49 396 33 q 377 17 356 6 q 336 -6 319 -6 q 303 -6 294 8 q 286 23 286 45 q 286 51 288 66 q 290 81 293 97 l 327 258 q 329 265 332 284 q 334 303 334 311 q 334 330 332 342 q 329 353 315 353 q 302 353 276 334 q 249 315 220 282 q 191 249 168 207 q 144 165 135 119 q 128 84 123 60 q 118 35 110 0 q 94 -4 75 -4 q 57 -4 41 0 l 105 315 q 106 320 108 332 q 109 343 109 347 q 109 348 109 349 q 109 356 108 364 q 107 371 100 371 q 90 371 74 358 q 58 344 46 330 q 33 316 31 314 q 29 314 25 322 q 21 329 21 333 q 25 340 38 355 q 52 370 70 386 q 88 402 108 414 q 128 425 145 425 q 161 425 172 410 q 183 396 183 374 q 183 368 181 353 q 179 338 175 322 z"},"h":{"x_min":0,"x_max":458,"ha":458,"o":"m 202 577 l 152 322 l 135 232 q 139 239 154 260 q 169 282 190 310 q 212 338 237 364 q 262 390 286 408 q 310 425 329 425 q 358 425 370 406 q 383 388 383 360 q 383 335 379 308 q 375 282 369 254 l 337 104 q 336 101 334 88 q 333 76 333 72 q 333 65 334 56 q 336 48 343 48 q 354 48 370 62 q 385 75 398 89 q 410 103 411 104 q 413 104 417 98 q 421 91 421 86 q 417 79 403 64 q 389 49 370 33 q 351 17 330 6 q 310 -6 293 -6 q 277 -6 268 8 q 260 23 260 45 q 260 51 262 66 q 263 81 267 97 l 301 258 q 303 265 306 284 q 308 303 308 311 q 308 328 305 340 q 302 353 289 353 q 276 353 250 332 q 225 312 196 278 q 168 243 145 201 q 122 159 114 116 q 110 94 104 64 q 98 34 90 0 q 83 -2 73 -3 q 63 -4 55 -4 q 48 -4 39 -3 q 30 -2 21 0 l 127 546 q 129 560 132 575 q 136 590 136 598 q 136 607 125 611 q 114 615 100 616 q 87 616 78 616 q 77 616 76 616 q 74 619 76 626 q 77 634 80 637 q 121 641 157 652 q 193 663 209 669 q 213 667 214 661 q 215 655 215 650 q 215 644 210 620 q 206 595 202 577 z"},"z":{"x_min":0,"x_max":377,"ha":377,"o":"m 142 425 q 163 425 181 418 q 199 412 217 405 q 230 401 242 398 q 255 395 271 395 q 289 395 308 402 q 327 410 341 418 q 355 425 359 425 q 365 422 368 416 q 370 410 370 405 q 370 402 350 378 q 330 354 298 318 q 267 283 232 244 q 196 205 164 170 q 132 135 112 113 q 91 91 90 90 q 93 92 106 96 q 119 101 135 101 q 151 101 166 96 q 181 91 195 84 q 209 78 222 72 q 235 67 247 67 q 260 67 272 82 q 283 96 292 112 q 301 129 304 133 q 311 133 312 128 q 314 123 315 117 q 307 99 292 71 q 276 43 256 22 q 236 0 213 0 q 196 0 175 7 q 154 14 135 21 q 123 26 102 28 q 82 31 65 31 q 44 31 30 20 q 16 8 1 0 q -8 3 -10 19 q -10 23 11 48 q 32 72 66 109 q 99 146 136 186 q 174 227 208 262 q 241 298 263 321 q 285 344 285 345 q 283 344 266 334 q 248 324 224 324 q 208 324 193 330 q 178 335 164 341 q 150 348 137 352 q 124 357 111 357 q 98 357 86 342 q 74 328 66 312 q 57 296 54 291 q 44 291 42 307 q 44 315 54 334 q 63 352 78 374 q 92 395 108 410 q 125 425 142 425 z"},"B":{"x_min":0,"x_max":552,"ha":552,"o":"m 228 642 q 254 642 286 643 q 317 644 357 644 q 399 644 434 632 q 468 619 488 592 q 509 566 509 524 q 509 475 488 442 q 467 408 440 388 q 412 368 392 357 q 414 355 437 338 q 460 321 476 291 q 492 261 492 221 q 492 155 454 104 q 417 54 352 26 q 288 -3 205 -3 l -4 -3 q -7 1 -5 11 q -3 21 1 25 q 7 25 22 26 q 37 28 51 32 q 65 36 67 41 q 73 53 77 72 q 81 91 85 113 l 166 530 q 171 552 174 572 q 177 592 176 603 q 176 609 164 612 q 151 615 137 616 q 123 618 117 618 q 115 622 116 632 q 118 642 122 646 q 150 645 176 644 q 202 642 228 642 z m 206 331 l 163 111 q 162 104 160 89 q 157 74 156 60 q 156 46 158 42 q 166 30 184 28 q 201 25 226 25 q 301 25 350 74 q 399 124 399 215 q 399 216 399 217 q 399 228 396 247 q 394 266 382 286 q 370 305 342 318 q 313 331 262 331 z m 213 361 l 305 361 q 338 361 364 381 q 391 401 407 435 q 423 469 423 510 q 423 538 413 562 q 403 585 378 600 q 354 615 312 615 q 304 615 286 614 q 268 612 264 605 q 259 596 254 575 q 250 554 246 532 z"},"K":{"x_min":0,"x_max":599,"ha":599,"o":"m 469 70 q 483 54 502 41 q 522 28 559 25 q 562 21 558 10 q 554 -1 553 -3 q 507 -3 473 0 q 439 3 426 8 q 417 12 403 21 q 389 30 373 50 q 366 61 344 96 q 321 130 288 182 q 255 234 216 297 q 215 300 209 300 q 204 300 200 298 l 164 113 q 160 91 157 72 q 154 53 155 41 q 156 36 168 32 q 180 28 194 26 q 209 25 214 25 q 216 21 215 11 q 214 1 209 -3 q 181 -1 155 0 q 129 2 103 2 q 77 2 51 0 q 25 -1 -4 -3 q -7 1 -5 11 q -3 21 1 25 q 7 25 22 26 q 36 28 50 32 q 63 36 66 41 q 72 53 76 72 q 81 91 85 113 l 166 530 q 171 552 174 572 q 177 591 175 603 q 175 609 162 612 q 150 615 136 616 q 122 618 116 618 q 114 622 116 632 q 118 642 122 646 q 150 645 176 644 q 202 642 228 642 q 254 642 280 644 q 307 645 335 646 q 338 642 336 632 q 334 622 330 618 q 325 618 310 616 q 294 615 280 612 q 266 609 263 603 q 257 591 254 572 q 250 552 245 530 l 207 332 q 218 339 238 354 q 258 370 282 390 q 306 410 328 429 q 360 457 379 474 q 398 490 410 502 q 423 513 436 526 q 448 540 469 562 q 474 568 480 577 q 487 586 488 593 q 491 605 480 610 q 470 615 458 616 q 446 617 442 617 q 441 622 442 630 q 444 639 448 646 q 473 645 499 643 q 525 641 550 641 q 580 641 601 643 q 622 645 650 646 q 651 642 648 630 q 646 617 642 617 q 638 617 622 616 q 606 614 586 606 q 565 599 546 581 q 498 535 459 500 q 420 465 382 432 q 343 398 295 357 q 290 353 290 350 q 291 346 293 342 q 343 260 385 192 q 427 123 469 70 z"},"R":{"x_min":0,"x_max":565,"ha":565,"o":"m 540 -3 q 480 -3 436 4 q 392 12 375 46 q 353 90 324 155 q 296 220 272 284 q 268 296 247 296 l 199 296 l 164 113 q 164 111 163 107 q 159 87 156 70 q 153 52 154 41 q 155 36 168 32 q 180 28 194 26 q 209 25 214 25 q 216 21 214 11 q 213 1 208 -3 q 180 -1 154 0 q 129 2 103 2 q 77 2 50 0 q 24 -1 -5 -3 q -8 1 -6 11 q -4 21 0 25 q 6 25 21 26 q 36 28 50 32 q 63 36 66 41 q 72 53 76 72 q 81 91 85 113 l 166 530 q 171 552 174 572 q 176 591 174 603 q 174 609 162 612 q 149 615 135 616 q 121 618 115 618 q 113 622 115 632 q 117 642 121 646 q 149 645 176 644 q 204 642 230 642 q 256 642 288 643 q 319 644 359 644 q 401 644 436 628 q 470 613 491 582 q 512 552 512 506 q 512 459 488 420 q 463 381 426 354 q 390 326 352 312 q 368 268 388 224 q 407 179 425 142 q 443 105 455 84 q 472 54 490 41 q 509 28 546 25 q 549 21 545 10 q 541 -1 540 -3 z m 205 325 l 254 325 q 293 325 332 344 q 372 363 398 402 q 425 441 425 500 q 425 515 421 534 q 417 554 406 572 q 394 591 372 603 q 349 615 311 615 q 303 615 285 614 q 267 612 263 605 q 258 596 254 575 q 250 554 245 532 z"},"T":{"x_min":0,"x_max":573,"ha":573,"o":"m 537 640 q 548 640 567 645 q 586 650 595 654 q 603 658 606 658 q 608 658 612 656 q 608 611 606 569 q 603 527 603 488 q 601 486 596 483 q 590 480 584 481 q 574 481 572 486 q 573 537 558 571 q 544 605 510 605 l 394 605 l 298 113 q 298 111 297 107 q 293 87 290 70 q 287 52 288 41 q 289 36 302 32 q 314 28 328 26 q 343 25 348 25 q 350 21 349 11 q 348 1 343 -3 q 315 -1 289 0 q 263 2 237 2 q 211 2 184 0 q 158 -1 129 -3 q 126 1 128 11 q 131 21 135 25 q 141 25 156 26 q 170 28 184 32 q 198 36 200 41 q 206 53 210 72 q 215 91 219 113 l 315 605 l 198 605 q 164 605 136 571 q 108 537 88 486 q 85 481 74 481 q 67 480 63 483 q 59 486 57 488 q 73 527 87 569 q 101 611 114 656 q 119 658 124 656 q 130 655 134 653 q 142 649 157 644 q 172 640 182 640 z"},"P":{"x_min":0,"x_max":499,"ha":499,"o":"m 510 496 q 510 434 478 384 q 446 333 394 304 q 343 275 283 275 q 267 275 255 278 q 243 282 239 285 q 238 287 234 292 q 231 297 231 301 q 231 303 235 305 q 241 302 251 302 q 261 301 268 301 q 304 301 340 324 q 376 346 400 387 q 423 428 423 482 q 423 510 416 540 q 409 571 385 593 q 361 615 310 615 q 302 615 284 614 q 267 612 263 605 q 258 596 254 575 q 250 554 245 532 l 163 113 q 159 91 156 72 q 153 53 154 41 q 155 36 168 32 q 180 28 194 26 q 209 25 214 25 q 216 21 214 11 q 213 1 208 -3 q 180 -1 154 0 q 128 2 102 2 q 76 2 50 0 q 24 -1 -5 -3 q -8 1 -6 11 q -4 21 0 25 q 6 25 21 26 q 36 28 50 32 q 63 36 66 41 q 72 53 76 72 q 81 91 85 113 l 166 530 q 171 552 174 572 q 176 591 174 603 q 174 609 162 612 q 149 615 135 616 q 121 618 115 618 q 113 622 115 632 q 117 642 121 646 q 149 645 176 644 q 203 642 229 642 q 247 642 260 642 q 274 643 290 644 q 307 644 334 644 q 412 644 461 604 q 510 563 510 496 z"},"|":{"x_min":0,"x_max":200,"ha":200,"o":"m 125 -369 q 125 -377 84 -385 l 81 -385 q 75 -385 75 -382 l 75 -380 q 75 -379 76 -378 q 76 -377 76 -377 l 76 700 l 77 706 q 78 707 79 707 q 80 707 81 708 q 102 715 117 715 q 125 715 125 709 z"},"t":{"x_min":0,"x_max":271,"ha":271,"o":"m 114 403 l 125 461 q 131 468 144 484 q 158 499 171 512 q 184 525 188 525 q 198 525 205 520 l 184 403 l 257 403 q 260 403 261 400 q 262 396 262 392 q 262 385 260 379 q 257 373 253 367 l 177 367 l 125 104 q 124 97 122 86 q 121 76 121 72 q 121 65 122 56 q 124 48 131 48 q 142 48 158 62 q 173 75 186 89 q 198 103 199 104 q 201 104 205 98 q 209 91 209 86 q 205 79 191 64 q 177 49 158 33 q 139 17 118 6 q 98 -6 81 -6 q 65 -6 56 8 q 48 23 48 45 q 48 51 50 66 q 52 81 55 97 l 107 367 l 42 367 q 40 367 40 370 q 40 378 54 390 q 69 403 85 403 z"},"M":{"x_min":0,"x_max":818,"ha":818,"o":"m 388 48 q 386 44 378 32 q 369 20 360 10 q 350 -1 344 -2 q 342 -3 338 -1 q 337 0 336 0 l 225 570 q 212 506 197 438 q 182 370 168 306 q 154 242 142 190 q 131 139 124 108 q 117 76 116 73 q 115 66 114 58 q 114 49 115 43 q 117 36 132 32 q 147 28 164 26 q 180 25 183 25 q 185 21 183 10 q 181 -1 179 -3 q 152 -1 133 0 q 114 2 84 2 q 53 2 31 0 q 9 -1 -23 -3 q -24 -1 -22 9 q -21 19 -17 25 q -11 25 5 27 q 21 29 38 33 q 54 37 59 43 q 67 53 71 64 q 75 76 79 92 q 99 180 118 261 q 136 342 150 406 q 164 471 173 512 q 182 552 183 559 q 185 570 187 580 q 189 590 187 598 q 187 604 174 608 q 161 613 147 616 q 133 618 127 618 q 126 623 128 634 q 130 644 133 646 q 154 645 174 644 q 194 643 221 643 q 241 643 262 644 q 284 645 300 646 q 301 631 309 588 q 317 545 328 488 q 339 431 351 370 q 363 309 374 256 q 384 204 390 170 q 397 137 397 136 q 397 137 410 159 q 422 181 442 216 q 461 251 484 292 q 508 334 531 376 q 554 418 574 452 q 593 487 605 508 q 617 529 617 529 q 630 552 644 579 q 659 606 670 626 q 680 646 680 646 q 722 643 748 643 q 772 643 796 644 q 821 645 838 646 q 838 644 837 631 q 836 618 836 618 q 830 618 815 616 q 800 614 786 610 q 772 606 768 601 q 764 594 761 583 q 758 572 756 563 l 682 137 q 677 109 674 84 q 672 59 675 42 q 676 35 690 32 q 703 28 718 26 q 732 25 735 25 q 737 18 736 8 q 734 -1 732 -3 q 705 -1 680 0 q 654 2 624 2 q 593 2 570 0 q 546 -1 514 -3 q 513 -1 514 9 q 516 19 520 25 q 528 25 550 28 q 571 31 581 36 q 586 39 590 53 q 595 67 597 77 q 598 81 603 114 q 608 146 616 197 q 625 248 635 310 q 645 371 655 434 q 665 497 674 553 q 671 549 654 519 q 638 489 612 444 q 586 399 556 346 q 526 292 496 240 q 467 188 442 144 q 418 101 403 74 q 388 48 388 48 z"},"g":{"x_min":0,"x_max":402,"ha":402,"o":"m 325 372 q 326 368 332 346 q 339 325 339 305 q 339 253 321 219 q 303 185 282 166 q 260 148 250 142 q 233 132 206 122 q 180 111 159 101 q 138 91 138 80 q 138 70 158 62 q 178 54 207 44 q 236 34 265 19 q 294 4 314 -19 q 334 -42 334 -76 q 334 -146 272 -187 q 210 -228 105 -228 q 39 -228 -4 -203 q -47 -178 -47 -132 q -47 -98 -24 -72 q -1 -46 32 -26 q 65 -7 94 6 l 76 18 q 67 24 60 32 q 52 40 52 53 q 52 65 70 79 q 87 93 110 104 q 133 115 149 119 q 134 119 108 132 q 81 144 60 170 q 39 195 39 233 q 39 288 66 332 q 94 375 136 400 q 179 426 224 426 q 252 426 270 420 q 289 413 307 404 q 314 401 326 404 q 338 408 349 413 q 355 415 360 416 q 365 418 368 419 q 378 416 393 406 q 408 395 408 385 q 408 380 405 376 q 402 371 396 371 q 392 371 386 371 q 380 371 373 372 q 359 372 345 372 q 331 372 325 372 z m 271 -115 q 271 -84 246 -63 q 221 -42 187 -28 q 153 -15 124 -6 q 105 -14 82 -28 q 58 -41 42 -60 q 25 -79 25 -107 q 25 -139 44 -158 q 63 -177 95 -185 q 127 -193 165 -193 q 214 -193 242 -170 q 271 -146 271 -115 z m 207 397 q 176 397 154 372 q 133 347 122 311 q 111 275 111 241 q 111 205 126 176 q 141 147 172 147 q 204 147 225 170 q 246 192 256 224 q 267 257 267 287 q 267 311 260 336 q 253 362 240 380 q 226 397 207 397 z"},"j":{"x_min":0,"x_max":243,"ha":243,"o":"m 114 315 q 115 320 116 332 q 118 343 118 347 q 118 354 117 362 q 116 371 108 371 q 98 371 82 358 q 67 344 54 330 q 42 316 40 314 q 38 314 34 322 q 30 329 30 333 q 34 340 47 355 q 60 370 78 386 q 96 402 116 414 q 136 425 153 425 q 169 425 180 410 q 191 396 191 374 q 191 368 190 353 q 188 338 185 322 l 131 44 q 127 27 119 -2 q 111 -30 97 -62 q 83 -93 62 -121 q 31 -161 -8 -190 q -48 -218 -74 -229 q -83 -222 -83 -210 q -34 -182 3 -121 q 40 -60 56 21 z m 181 631 q 197 631 206 620 q 216 608 216 592 q 216 570 201 552 q 186 533 163 533 q 147 533 138 546 q 130 559 130 575 q 130 597 144 614 q 159 631 181 631 z"},"i":{"x_min":0,"x_max":255,"ha":255,"o":"m 108 315 q 109 320 110 332 q 112 343 112 347 q 112 348 112 349 q 112 356 111 364 q 110 371 103 371 q 93 371 77 358 q 61 344 48 330 q 36 316 34 314 q 32 314 28 322 q 24 329 24 333 q 28 340 41 355 q 54 370 72 386 q 90 402 110 414 q 130 425 147 425 q 163 425 174 410 q 186 396 186 374 q 186 368 184 353 q 182 338 179 322 l 129 104 q 128 97 126 86 q 125 76 125 72 q 125 65 126 56 q 128 48 135 48 q 146 48 162 62 q 177 75 190 89 q 202 103 203 104 q 205 104 209 98 q 213 91 213 86 q 209 79 195 64 q 181 49 162 33 q 143 17 122 6 q 102 -6 85 -6 q 69 -6 60 8 q 52 23 52 45 q 52 51 54 66 q 56 81 59 97 z m 164 631 q 180 631 190 620 q 199 608 199 592 q 199 570 184 552 q 169 533 146 533 q 130 533 122 546 q 113 559 113 575 q 113 597 128 614 q 142 631 164 631 z"},"y":{"x_min":0,"x_max":436,"ha":436,"o":"m 129 425 q 150 425 164 400 q 179 374 188 332 q 198 291 204 242 q 210 194 212 148 q 215 101 216 66 q 216 30 216 15 q 229 31 248 59 q 267 87 285 123 q 303 159 316 198 q 328 238 328 278 q 328 323 320 345 q 312 367 304 383 q 310 402 323 414 q 336 425 353 425 q 374 425 383 410 q 392 395 394 377 q 396 359 396 348 q 396 291 372 226 q 349 162 310 97 q 271 32 222 -26 q 174 -84 124 -130 q 74 -175 28 -202 q -17 -228 -50 -228 q -76 -228 -92 -216 q -108 -204 -108 -188 q -108 -175 -102 -163 q -97 -151 -86 -145 q -75 -152 -50 -158 q -24 -163 -8 -163 q 38 -163 70 -140 q 101 -117 125 -82 q 139 -60 141 -24 q 143 13 143 44 q 143 48 143 52 q 143 57 143 61 q 143 94 142 136 q 140 177 136 218 q 132 259 126 294 q 119 329 108 350 q 98 371 84 371 q 74 371 58 358 q 43 344 30 330 q 18 316 16 314 q 14 314 10 322 q 6 329 6 333 q 10 340 23 355 q 36 370 54 386 q 72 402 92 414 q 112 425 129 425 z"},"@":{"x_min":0,"x_max":730,"ha":730,"o":"m 408 564 q 480 564 534 539 q 587 514 623 471 q 659 428 677 374 q 695 321 695 264 q 695 190 668 128 q 642 66 596 30 q 551 -7 494 -7 q 458 -7 436 12 q 413 32 413 77 q 413 86 416 101 q 418 116 420 122 q 413 109 398 88 q 384 66 365 45 q 346 24 324 10 q 303 -5 282 -5 q 252 -5 231 14 q 210 33 200 63 q 189 93 189 127 q 189 181 214 234 q 238 286 279 330 q 320 373 370 399 q 419 425 469 425 q 495 425 510 421 q 526 417 540 412 l 480 104 q 479 101 478 92 q 478 83 478 79 q 478 56 492 46 q 505 35 524 35 q 555 35 586 66 q 616 97 636 148 q 656 200 656 261 q 656 311 641 358 q 626 405 596 442 q 565 480 518 502 q 472 525 408 525 q 333 525 274 494 q 215 462 173 410 q 131 357 109 294 q 87 230 87 166 q 87 81 126 18 q 165 -45 217 -76 q 243 -92 260 -97 q 276 -102 290 -104 q 290 -110 277 -116 q 264 -121 255 -121 q 246 -121 236 -120 q 227 -119 217 -115 q 172 -98 134 -58 q 95 -18 72 40 q 48 97 48 166 q 48 238 72 308 q 96 379 142 437 q 189 495 256 530 q 323 564 408 564 z m 428 380 q 400 380 371 360 q 342 339 317 306 q 292 272 277 230 q 262 189 262 147 q 262 101 274 76 q 287 52 312 52 q 330 52 351 72 q 372 92 392 124 q 411 157 426 195 q 441 233 448 268 l 468 367 q 461 375 450 378 q 438 380 428 380 z"},".":{"x_min":0,"x_max":317,"ha":317,"o":"m 120 208 q 127 227 148 212 l 236 151 q 251 141 239 111 l 200 18 q 189 -8 162 13 l 87 70 q 68 85 75 101 z"},"p":{"x_min":0,"x_max":437,"ha":437,"o":"m 313 425 q 360 425 379 392 q 398 358 398 307 q 398 250 376 195 q 355 140 320 94 q 284 49 240 22 q 197 -5 152 -5 q 139 -5 126 -2 q 112 1 107 8 l 74 -142 q 73 -149 72 -155 q 72 -161 72 -169 q 72 -173 75 -181 q 78 -189 85 -191 q 96 -194 110 -194 q 124 -194 129 -194 q 131 -194 131 -194 q 134 -195 133 -208 q 132 -220 128 -222 q 118 -222 110 -222 q 102 -221 94 -221 q 57 -221 24 -222 q -8 -224 -51 -229 q -55 -228 -54 -216 q -54 -203 -50 -201 q -22 -201 -10 -186 q -5 -179 -2 -170 q 1 -160 5 -144 l 82 244 l 35 197 q 32 201 31 207 q 30 213 30 217 q 30 221 33 224 l 90 285 l 116 423 q 124 425 134 426 q 145 427 153 427 q 170 427 184 420 q 182 411 178 392 q 175 374 172 358 q 169 342 168 338 q 181 350 206 371 q 231 392 260 408 q 288 425 313 425 z m 274 371 q 258 371 236 359 q 213 347 192 330 q 171 312 158 293 l 126 128 q 118 85 134 57 q 150 29 172 29 q 203 29 230 54 q 258 79 280 119 q 301 159 313 206 q 325 253 325 296 q 325 337 311 354 q 297 371 274 371 z"},"X":{"x_min":0,"x_max":605,"ha":605,"o":"m 219 642 q 253 642 280 644 q 308 645 336 646 q 337 642 335 630 q 333 618 329 618 q 323 618 310 616 q 296 613 284 606 q 272 600 269 587 q 266 576 274 558 l 346 383 q 381 422 416 462 q 451 502 478 534 q 505 565 514 578 q 516 580 518 585 q 521 590 522 594 q 523 599 512 608 q 500 617 462 617 q 459 618 461 630 q 463 641 466 646 q 493 644 516 642 q 538 641 563 641 q 598 641 622 643 q 647 645 663 646 q 665 642 663 632 q 661 622 656 617 q 653 617 638 614 q 622 612 603 604 q 584 596 568 578 l 360 353 l 480 64 q 489 43 514 34 q 539 25 561 25 q 563 21 560 10 q 557 -1 556 -3 q 529 -1 510 0 q 492 2 464 2 q 426 2 397 0 q 368 -1 330 -3 q 327 1 329 13 q 331 25 335 25 q 340 25 354 28 q 367 31 380 38 q 392 44 394 53 q 395 55 394 58 q 393 61 392 63 q 392 64 392 64 l 298 293 q 272 264 242 228 q 212 193 183 159 q 154 125 133 100 q 112 74 104 64 q 103 62 100 58 q 97 54 96 49 q 95 45 109 35 q 123 25 161 25 q 163 21 161 10 q 159 -1 157 -3 q 132 -1 106 0 q 80 2 55 2 q 20 2 -4 0 q -29 -1 -57 -3 q -58 2 -54 12 q -51 23 -50 25 q -46 25 -28 28 q -10 30 12 38 q 35 47 51 64 l 283 324 l 196 535 q 186 561 176 576 q 166 591 149 603 q 139 611 124 614 q 109 618 101 618 q 97 618 100 630 q 103 642 107 646 q 140 645 162 644 q 185 642 219 642 z"},"*":{"x_min":0,"x_max":432,"ha":432,"o":"m 295 599 q 308 613 323 617 q 338 621 349 610 q 361 598 359 584 q 357 569 343 556 q 318 533 294 523 q 269 513 249 493 q 249 493 246 488 q 243 483 244 479 q 245 473 253 470 q 279 458 302 456 q 326 455 358 440 q 375 433 384 420 q 393 407 386 393 q 379 378 364 375 q 349 372 333 381 q 302 398 286 418 q 269 438 244 451 q 244 451 239 454 q 234 456 230 454 q 226 452 226 448 q 225 445 224 441 q 223 428 224 416 q 225 405 226 394 q 228 381 229 366 q 230 352 228 333 q 226 315 216 302 q 207 290 191 292 q 175 294 168 308 q 160 321 164 339 q 171 374 185 396 q 199 418 204 446 q 204 446 204 451 q 204 456 201 459 q 197 464 188 462 q 161 456 141 444 q 121 432 86 424 q 69 420 53 425 q 37 430 35 446 q 32 462 43 474 q 54 485 72 487 q 90 489 106 488 q 121 487 134 484 q 147 483 159 482 q 171 480 185 482 q 185 482 190 484 q 195 486 196 490 q 199 496 194 504 q 180 528 162 544 q 144 559 127 590 q 118 606 118 622 q 119 638 132 645 q 147 653 160 646 q 174 639 182 622 q 197 590 198 564 q 199 539 212 513 q 212 513 215 508 q 218 503 222 502 q 228 501 235 508 q 254 528 263 550 q 272 573 295 599 z"},"Y":{"x_min":0,"x_max":542,"ha":542,"o":"m 206 113 l 234 261 q 235 266 235 274 q 235 281 233 288 l 152 535 q 143 562 133 576 q 123 591 106 603 q 96 611 81 614 q 66 618 58 618 q 54 618 57 630 q 60 642 64 646 q 97 645 120 644 q 142 642 176 642 q 210 642 238 644 q 265 645 293 646 q 294 642 292 630 q 290 618 286 618 q 280 618 266 616 q 253 613 241 606 q 229 600 226 587 q 225 582 226 576 q 227 570 230 562 q 231 559 231 558 l 309 323 q 332 355 360 394 q 387 434 412 472 q 438 509 456 538 q 475 567 481 578 q 484 583 486 593 q 487 598 475 608 q 463 617 425 617 q 423 619 425 631 q 427 643 429 646 q 454 645 474 643 q 495 641 520 641 q 555 641 574 643 q 592 645 620 646 q 620 644 617 630 q 614 617 612 617 q 609 617 593 616 q 577 614 558 606 q 539 598 525 578 l 325 294 q 319 286 318 278 q 317 271 315 264 l 285 113 q 285 111 284 107 q 280 87 277 70 q 274 52 275 41 q 276 36 288 32 q 301 28 316 26 q 330 25 335 25 q 337 21 336 11 q 335 1 330 -3 q 302 -1 276 0 q 251 2 225 2 q 199 2 172 0 q 145 -1 116 -3 q 113 1 116 11 q 118 21 122 25 q 128 25 143 26 q 158 28 172 32 q 186 36 188 41 q 194 53 198 72 q 202 91 206 113 z"},"c":{"x_min":0,"x_max":350,"ha":350,"o":"m 269 425 q 292 425 306 416 q 319 408 329 400 q 331 397 334 390 q 338 382 338 374 q 338 358 330 344 q 322 330 305 330 q 282 330 270 350 q 263 362 252 374 q 240 385 219 385 q 192 385 164 356 q 137 326 118 275 q 100 224 100 158 q 100 141 104 116 q 108 91 122 72 q 136 52 167 52 q 184 52 201 62 q 218 71 233 84 q 248 97 258 108 q 267 118 268 119 q 270 119 274 112 q 279 105 279 100 q 275 93 260 76 q 246 59 225 40 q 204 21 180 8 q 155 -6 132 -6 q 80 -6 52 32 q 23 69 23 137 q 23 196 46 248 q 70 300 108 340 q 146 379 188 402 q 231 425 269 425 z"},"!":{"x_min":0,"x_max":235,"ha":235,"o":"m 122 666 q 144 666 154 648 q 165 629 165 609 q 165 557 156 447 q 148 337 131 168 q 125 156 115 155 q 106 160 103 166 q 73 504 73 609 q 73 629 87 648 q 101 666 122 666 z m 64 44 q 64 66 80 81 q 98 97 118 97 q 140 97 156 81 q 171 66 171 44 q 171 23 156 6 q 141 -11 118 -11 q 97 -11 80 6 q 64 22 64 44 z"},"/":{"x_min":0,"x_max":344,"ha":344,"o":"m 302 702 q 311 702 314 693 l 71 -164 q 70 -169 58 -178 q 47 -186 33 -186 q 28 -186 22 -184 q 18 -182 16 -181 l 15 -179 l 263 688 q 263 690 268 693 q 272 696 282 699 q 291 702 302 702 z"},"[":{"x_min":0,"x_max":361,"ha":361,"o":"m 165 710 l 314 716 l 317 710 l 317 707 q 317 696 309 692 q 308 692 308 692 q 308 691 308 691 q 289 685 260 680 q 231 674 193 669 l 193 -339 l 259 -349 q 293 -355 308 -361 q 317 -366 317 -377 q 317 -381 316 -382 l 315 -385 l 314 -386 l 227 -381 q 211 -380 196 -380 q 180 -380 165 -380 q 149 -379 146 -357 l 146 688 q 146 701 156 708 q 159 710 165 710 z"},"6":{"x_min":0,"x_max":532,"ha":532,"o":"m 282 386 q 333 386 368 367 q 402 348 422 318 q 443 289 452 256 q 461 224 461 198 q 461 144 434 98 q 408 51 364 22 q 319 -6 263 -6 q 219 -6 184 14 q 148 33 123 65 q 98 97 84 136 q 71 176 71 215 q 71 290 95 357 q 119 424 165 474 q 200 512 246 544 q 291 576 338 599 q 386 622 427 632 q 434 632 436 620 q 438 609 438 604 q 407 594 368 576 q 328 558 288 528 q 248 498 216 452 q 184 407 167 342 q 193 363 225 374 q 257 386 282 386 z m 159 299 q 157 283 156 266 q 155 249 155 232 q 155 199 162 163 q 169 127 184 96 q 198 65 220 46 q 242 26 271 26 q 318 26 348 70 q 378 114 378 180 q 378 222 366 258 q 353 294 326 316 q 299 338 255 338 q 234 338 208 332 q 183 325 159 299 z"},"r":{"x_min":0,"x_max":347,"ha":347,"o":"m 300 425 q 316 425 328 418 q 341 412 348 404 q 356 394 356 377 q 356 358 347 346 q 338 334 321 334 q 305 334 292 349 q 286 356 272 356 q 259 356 239 334 q 219 312 198 276 q 178 240 161 198 q 144 157 137 119 l 115 0 q 99 -3 82 -3 q 64 -3 46 0 l 104 315 q 105 320 106 332 q 108 343 108 347 q 108 348 108 349 q 108 356 107 364 q 106 371 99 371 q 89 371 73 358 q 57 344 44 330 q 32 316 30 314 q 28 314 24 322 q 21 329 21 333 q 25 340 38 355 q 51 370 69 386 q 87 402 107 414 q 127 425 144 425 q 160 425 171 410 q 182 396 182 374 q 182 368 180 353 q 177 338 174 322 q 170 298 166 281 q 162 264 157 240 q 167 264 184 296 q 201 327 222 356 q 242 386 262 406 q 283 425 300 425 z"},"2":{"x_min":0,"x_max":532,"ha":532,"o":"m 467 146 q 457 122 446 92 q 435 61 426 35 q 417 9 414 0 l 76 0 q 73 2 70 6 q 66 11 66 14 q 107 60 150 110 q 193 160 232 209 q 271 258 299 299 q 329 343 338 376 q 346 409 346 445 q 346 495 316 529 q 285 563 238 563 q 199 563 170 546 q 141 529 123 509 q 105 489 99 479 q 93 479 86 486 q 80 492 80 495 q 83 504 96 526 q 110 547 134 570 q 158 594 190 610 q 221 627 260 627 q 307 627 346 604 q 384 580 406 543 q 429 506 429 464 q 429 422 414 385 q 399 348 373 316 q 339 274 298 226 q 256 179 219 138 q 182 96 160 71 l 354 71 q 383 71 402 90 q 420 108 436 146 q 438 152 447 152 q 450 152 457 150 q 464 148 467 146 z"},"{":{"x_min":0,"x_max":397,"ha":397,"o":"m 190 -225 q 186 -295 254 -371 q 263 -383 252 -394 q 241 -405 229 -395 q 151 -329 149 -201 q 147 -141 177 -66 q 205 9 209 38 q 218 104 142 150 l 142 182 q 218 228 209 294 q 207 310 199 336 q 191 361 177 398 q 149 475 149 533 q 152 661 229 726 q 241 737 252 726 q 262 714 253 702 q 185 627 190 556 q 193 517 221 470 q 270 389 256 296 q 243 208 182 166 q 243 122 256 36 q 270 -57 221 -138 q 193 -185 190 -225 z"},"9":{"x_min":0,"x_max":532,"ha":532,"o":"m 94 22 q 125 32 164 50 q 204 68 244 98 q 284 128 316 174 q 349 219 365 284 q 340 263 308 252 q 275 240 250 240 q 199 240 164 259 q 130 278 110 308 q 89 337 80 370 q 72 402 72 428 q 72 483 98 529 q 125 575 170 604 q 215 632 270 632 q 314 632 350 612 q 385 593 410 561 q 435 529 448 490 q 461 450 461 411 q 461 336 438 269 q 414 202 367 152 q 333 114 287 82 q 241 50 194 28 q 146 5 105 -6 q 98 -6 96 6 q 94 18 94 22 z m 373 327 q 375 343 376 360 q 377 377 377 394 q 377 427 370 463 q 363 499 349 530 q 335 561 313 580 q 291 600 262 600 q 216 600 186 556 q 155 512 155 446 q 155 405 167 368 q 179 332 206 310 q 233 288 277 288 q 298 288 324 294 q 349 301 373 327 z"}," ":{"x_min":0,"x_max":292,"ha":292,"o":""},"I":{"x_min":0,"x_max":305,"ha":305,"o":"m 227 642 q 253 642 280 644 q 307 645 335 646 q 338 642 336 632 q 333 622 329 618 q 324 618 308 616 q 293 615 280 612 q 266 609 263 603 q 257 591 254 572 q 250 552 245 530 l 164 113 q 164 111 163 107 q 159 87 156 70 q 153 52 154 41 q 155 36 168 32 q 180 28 194 26 q 209 25 214 25 q 216 21 214 11 q 213 1 208 -3 q 180 -1 154 0 q 129 2 103 2 q 77 2 50 0 q 24 -1 -5 -3 q -8 1 -6 11 q -4 21 0 25 q 6 25 21 26 q 36 28 50 32 q 63 36 66 41 q 72 53 76 72 q 81 91 85 113 l 166 530 q 171 552 174 572 q 176 591 174 603 q 174 609 162 612 q 149 615 135 616 q 121 618 115 618 q 113 622 115 632 q 117 642 121 646 q 149 645 175 644 q 201 642 227 642 z"},"H":{"x_min":0,"x_max":669,"ha":669,"o":"m 164 113 q 164 111 163 107 q 159 87 156 70 q 153 52 154 41 q 155 36 168 32 q 180 28 194 26 q 209 25 214 25 q 216 21 214 11 q 213 1 208 -3 q 180 -1 154 0 q 129 2 103 2 q 77 2 50 0 q 24 -1 -5 -3 q -8 1 -6 11 q -4 21 0 25 q 6 25 21 26 q 36 28 50 32 q 63 36 66 41 q 72 53 76 72 q 81 91 85 113 l 166 530 q 171 552 174 572 q 176 591 174 603 q 174 609 162 612 q 149 615 135 616 q 121 618 115 618 q 113 622 115 632 q 117 642 121 646 q 149 645 175 644 q 201 642 227 642 q 253 642 280 644 q 307 645 335 646 q 338 642 336 632 q 333 622 329 618 q 324 618 308 616 q 293 615 280 612 q 266 609 263 603 q 257 591 253 572 q 249 552 245 530 l 209 348 l 494 348 l 530 530 q 531 534 532 538 q 532 541 533 544 q 536 562 538 578 q 540 593 539 603 q 539 609 526 612 q 513 615 499 616 q 485 618 479 618 q 477 622 479 632 q 481 642 485 646 q 513 645 539 644 q 565 642 591 642 q 617 642 644 644 q 671 645 699 646 q 702 642 700 632 q 697 622 693 618 q 688 618 673 616 q 658 615 644 612 q 631 609 628 603 q 622 591 618 572 q 614 552 609 530 l 528 113 q 528 111 527 107 q 523 87 520 70 q 517 52 518 41 q 519 36 532 32 q 544 28 558 26 q 573 25 578 25 q 580 21 578 11 q 577 1 572 -3 q 544 -1 518 0 q 492 2 466 2 q 440 2 414 0 q 388 -1 359 -3 q 356 1 358 11 q 360 21 364 25 q 370 25 385 26 q 400 28 414 32 q 428 36 430 41 q 436 53 440 72 q 445 91 449 113 l 487 309 l 202 309 z"},"4":{"x_min":0,"x_max":532,"ha":532,"o":"m 396 629 q 404 629 408 623 q 411 617 411 611 l 411 226 l 469 226 q 474 226 478 214 q 482 202 482 186 q 482 175 479 170 l 411 170 l 411 -1 q 411 -1 404 -4 q 398 -6 369 -6 q 334 -6 334 2 l 334 170 l 59 170 q 54 173 52 178 q 49 184 49 188 l 367 604 q 372 610 381 620 q 390 629 396 629 z m 334 512 l 115 226 l 334 226 z"},"~":{"x_min":0,"x_max":532,"ha":532,"o":"m 192 346 q 224 346 248 338 q 272 330 294 320 q 316 310 340 302 q 364 294 396 294 q 422 294 443 308 q 464 321 486 337 q 488 336 490 334 q 492 332 492 327 q 492 313 474 293 q 455 273 425 258 q 395 244 360 244 q 328 244 304 252 q 279 260 257 270 q 235 280 210 288 q 186 296 154 296 q 128 296 107 283 q 86 270 63 253 q 62 255 60 257 q 58 259 58 263 q 58 282 80 301 q 102 320 134 333 q 165 346 192 346 z"},"D":{"x_min":0,"x_max":667,"ha":667,"o":"m 360 643 q 465 643 531 602 q 597 560 622 488 q 648 417 630 326 q 618 264 590 205 q 562 146 514 100 q 466 53 394 25 q 322 -3 223 -3 l -4 -3 q -7 1 -5 11 q -3 21 1 25 q 7 25 22 26 q 37 28 51 32 q 65 36 67 41 q 73 53 77 72 q 81 91 85 113 l 166 530 q 166 531 167 533 q 171 554 174 572 q 177 591 176 603 q 176 609 164 612 q 151 615 137 616 q 123 618 117 618 q 115 622 116 632 q 118 642 122 646 q 150 645 176 644 q 202 642 228 642 q 254 642 292 642 q 330 643 360 643 z m 246 533 l 163 109 q 162 102 160 86 q 157 71 156 56 q 154 42 155 39 q 159 31 180 28 q 202 25 227 25 q 297 25 361 56 q 425 86 472 148 q 519 211 537 306 q 559 417 536 485 q 514 553 460 584 q 405 616 330 616 q 325 616 310 616 q 294 615 280 612 q 267 610 264 605 q 258 593 254 574 q 250 554 246 533 z"},"^":{"x_min":0,"x_max":380,"ha":380,"o":"m 182 630 q 191 630 197 617 q 217 579 233 550 q 249 521 266 494 q 283 466 304 429 q 304 422 299 418 q 294 413 289 413 q 272 431 254 452 q 235 474 218 494 q 202 513 192 526 q 182 539 182 539 q 182 539 172 526 q 162 513 146 494 q 129 474 110 452 q 92 431 75 413 q 71 413 66 418 q 60 422 60 429 q 81 466 98 494 q 115 521 132 550 q 148 579 167 617 q 174 630 182 630 z"},"0":{"x_min":0,"x_max":532,"ha":532,"o":"m 266 626 q 335 626 382 583 q 430 540 454 468 q 479 397 479 312 q 479 227 454 156 q 429 84 382 40 q 334 -3 266 -3 q 200 -3 152 40 q 104 84 78 156 q 53 227 53 312 q 53 397 78 468 q 103 540 151 583 q 199 626 266 626 z m 271 590 q 230 590 200 552 q 171 515 155 452 q 139 389 139 312 q 139 236 155 172 q 171 109 198 71 q 226 33 262 33 q 306 33 335 72 q 364 111 378 176 q 393 241 393 317 q 393 394 378 456 q 362 517 334 554 q 307 590 271 590 z"},"F":{"x_min":0,"x_max":496,"ha":496,"o":"m 228 642 q 292 642 370 645 q 447 648 521 648 q 520 623 520 602 q 520 580 520 559 q 521 548 521 538 q 521 527 521 516 q 516 511 504 511 q 493 511 493 518 q 489 577 466 596 q 443 615 407 615 l 329 615 q 324 615 310 614 q 295 614 282 612 q 268 609 265 604 q 259 592 254 573 q 249 554 245 534 l 209 347 q 208 343 220 342 q 232 341 247 341 l 295 341 q 328 341 346 343 q 364 345 374 352 q 383 359 390 373 q 398 387 408 411 q 411 418 424 418 q 435 418 438 413 l 402 229 q 398 225 387 225 q 375 225 374 232 q 372 274 369 286 q 366 297 361 301 q 357 305 340 306 q 324 308 304 308 q 284 309 267 309 q 255 309 239 308 q 223 308 212 306 q 200 305 199 300 l 163 113 q 159 91 156 72 q 153 53 154 41 q 155 36 170 32 q 184 28 201 26 q 218 25 223 25 q 225 21 224 11 q 222 1 217 -3 q 189 -1 159 0 q 129 2 103 2 q 71 2 46 0 q 21 -3 -5 -3 q -8 1 -6 11 q -4 21 0 25 q 6 25 21 26 q 36 28 50 32 q 63 36 66 41 q 72 53 76 72 q 81 91 85 113 l 166 530 q 171 552 174 572 q 177 591 175 603 q 175 609 162 612 q 149 615 135 616 q 121 618 115 618 q 113 622 115 632 q 117 642 121 646 q 149 645 176 644 q 202 642 228 642 z"},"`":{"x_min":0,"x_max":333,"ha":333,"o":""},"k":{"x_min":0,"x_max":449,"ha":449,"o":"m 317 425 q 346 425 368 406 q 391 387 391 358 q 391 314 362 284 q 333 253 286 234 q 239 216 185 206 q 228 142 254 108 q 281 74 300 62 q 318 50 338 50 q 347 50 360 60 q 374 71 386 84 q 399 97 404 104 q 406 104 410 97 q 414 90 414 86 q 411 81 398 66 q 386 52 368 36 q 350 19 330 8 q 311 -4 295 -4 q 266 -4 242 16 q 218 35 198 65 q 178 95 160 128 q 143 161 127 187 l 91 0 q 73 -5 57 -5 q 41 -5 21 0 l 128 546 q 131 560 134 575 q 137 590 137 598 q 137 607 126 611 q 115 615 102 616 q 88 616 79 616 q 78 616 77 616 q 75 619 76 626 q 78 634 81 637 q 122 641 158 652 q 194 663 210 669 q 214 667 215 661 q 216 655 216 650 q 216 644 212 620 q 207 595 203 577 l 152 314 q 154 316 168 332 q 182 349 205 371 q 228 393 257 409 q 286 425 317 425 z m 282 379 q 261 379 237 364 q 213 348 192 324 q 170 301 155 274 q 140 248 135 225 q 159 225 190 232 q 221 240 249 255 q 277 270 296 293 q 314 316 314 346 q 314 360 308 370 q 302 379 282 379 z"},"u":{"x_min":0,"x_max":479,"ha":479,"o":"m 285 97 q 290 122 294 140 q 298 157 303 182 q 294 161 271 130 q 248 99 219 68 q 190 36 160 15 q 130 -6 106 -6 q 78 -6 68 15 q 58 36 58 64 q 58 84 62 114 q 67 144 71 165 l 104 315 q 105 320 106 332 q 107 343 107 347 q 107 348 107 349 q 107 356 106 364 q 105 371 98 371 q 88 371 72 358 q 56 344 44 330 q 31 316 29 314 q 27 314 24 322 q 20 329 20 333 q 24 340 37 355 q 50 370 68 386 q 86 402 106 414 q 126 425 143 425 q 159 425 170 410 q 181 396 181 374 q 181 368 179 353 q 177 338 174 322 l 140 161 q 139 154 136 135 q 133 116 133 108 q 133 92 136 79 q 138 66 151 66 q 164 66 189 87 q 214 108 242 144 q 271 179 294 222 q 317 266 326 312 q 332 342 337 365 q 342 388 348 419 q 361 423 378 423 q 386 423 396 422 q 407 421 416 419 l 355 104 q 354 97 353 86 q 352 76 352 72 q 352 71 352 70 q 352 63 353 56 q 354 48 361 48 q 372 48 388 62 q 403 75 416 89 q 429 103 430 104 q 432 104 436 98 q 439 91 439 86 q 435 79 422 64 q 408 49 389 33 q 370 17 350 6 q 329 -6 312 -6 q 296 -6 287 8 q 278 23 278 45 q 278 51 280 66 q 282 81 285 97 z"},"]":{"x_min":0,"x_max":361,"ha":361,"o":"m 196 710 q 203 710 206 708 q 215 702 215 688 l 215 -357 q 212 -379 196 -380 q 181 -380 166 -380 q 151 -380 135 -381 l 47 -386 l 46 -385 l 45 -382 q 44 -381 44 -377 q 44 -367 54 -361 q 69 -355 103 -349 l 168 -339 l 168 669 q 130 674 102 680 q 73 685 54 691 q 54 691 54 692 q 53 692 52 692 q 44 696 44 707 l 44 710 l 47 716 z"},"U":{"x_min":0,"x_max":645,"ha":645,"o":"m 213 642 q 239 642 266 644 q 292 645 320 646 q 323 642 320 632 q 318 622 314 618 q 309 618 294 616 q 279 615 266 612 q 252 609 249 603 q 243 591 239 572 q 235 552 230 530 l 183 289 q 160 174 189 117 q 220 53 306 53 q 353 53 392 72 q 431 91 460 138 q 490 184 507 268 l 559 532 q 564 558 566 573 q 567 588 562 600 q 560 605 548 610 q 536 614 522 616 q 509 619 501 619 q 499 624 501 634 q 503 643 505 647 q 532 646 552 644 q 573 643 603 643 q 624 643 638 644 q 653 644 667 645 q 681 646 702 647 q 704 643 703 635 q 702 627 697 619 q 692 619 676 617 q 659 615 643 610 q 627 606 622 600 q 614 589 610 575 q 606 561 601 533 l 549 270 q 521 124 452 60 q 383 -4 276 -4 q 172 -4 122 66 q 100 98 92 144 q 84 189 95 245 l 151 530 q 151 531 152 533 q 156 554 159 572 q 162 591 161 603 q 161 609 148 612 q 135 615 121 616 q 107 618 101 618 q 99 622 101 632 q 103 642 107 646 q 135 645 161 644 q 187 642 213 642 z"},"o":{"x_min":0,"x_max":404,"ha":404,"o":"m 245 425 q 304 425 332 384 q 359 344 359 281 q 359 230 340 179 q 322 128 290 86 q 258 45 218 20 q 179 -5 137 -5 q 79 -5 51 34 q 23 72 23 135 q 23 186 42 238 q 60 289 92 332 q 124 374 164 400 q 203 425 245 425 z m 231 394 q 200 394 176 371 q 152 348 135 311 q 118 274 109 232 q 100 191 100 154 q 100 96 114 61 q 129 26 155 26 q 185 26 209 50 q 233 73 250 110 q 266 147 274 188 q 283 230 283 267 q 283 326 270 360 q 257 394 231 394 z"},"N":{"x_min":0,"x_max":714,"ha":714,"o":"m 613 528 q 618 554 620 570 q 621 587 616 599 q 614 606 601 610 q 588 614 574 616 q 559 618 551 618 q 549 623 550 632 q 552 642 554 646 q 581 645 602 644 q 623 643 653 643 q 685 643 704 644 q 724 645 755 646 q 757 642 756 634 q 756 626 751 618 q 746 618 730 616 q 714 614 698 610 q 683 606 678 600 q 670 589 666 575 q 661 561 656 533 l 579 136 q 571 93 566 65 q 561 37 555 -1 q 553 -3 546 -4 q 540 -5 538 -5 q 524 -5 512 18 l 219 556 l 133 112 q 128 86 126 72 q 125 57 129 45 q 131 40 144 36 q 157 31 172 28 q 187 25 194 25 q 196 20 194 11 q 192 2 190 -3 q 163 -1 141 0 q 119 2 89 2 q 58 2 39 0 q 20 -1 -12 -3 q -13 1 -12 9 q -11 17 -6 25 q 0 25 16 28 q 32 30 48 34 q 64 39 68 45 q 76 56 81 70 q 86 83 91 111 l 173 535 q 178 563 180 577 q 181 591 177 602 q 175 608 160 612 q 146 615 131 616 q 116 618 110 618 q 108 626 110 634 q 112 642 115 646 q 146 645 161 644 q 176 643 198 643 q 218 643 243 644 q 268 645 278 646 q 287 623 310 580 q 333 538 364 484 q 394 430 427 372 q 460 314 490 258 q 520 203 541 158 z"},"+":{"x_min":0,"x_max":529,"ha":529,"o":"m 236 463 q 248 468 260 471 q 273 474 278 474 q 286 474 288 471 q 291 468 291 468 l 291 268 l 490 268 q 499 268 499 256 q 499 244 494 232 q 489 219 483 213 l 291 213 l 291 16 q 282 9 270 7 q 257 5 249 5 q 236 5 236 14 l 236 213 l 36 213 q 36 213 33 214 q 30 216 30 223 q 30 226 34 244 q 38 262 45 268 l 236 268 z"},"G":{"x_min":0,"x_max":680,"ha":680,"o":"m 571 482 q 574 521 554 552 q 535 584 501 602 q 467 620 426 620 q 350 620 287 578 q 224 536 187 458 q 150 381 150 275 q 150 232 161 187 q 172 142 196 104 q 219 67 256 44 q 294 21 347 21 q 382 21 411 32 q 440 44 456 54 q 465 61 466 70 q 469 83 474 107 q 478 131 482 151 q 485 171 485 171 q 485 173 486 177 q 490 197 493 214 q 496 232 495 243 q 495 249 481 252 q 467 256 452 258 q 437 259 431 259 q 429 263 430 273 q 432 283 436 287 q 464 286 490 284 q 515 282 541 282 q 567 282 594 284 q 620 286 648 287 q 651 283 650 273 q 649 263 645 259 q 640 259 626 258 q 611 256 598 252 q 585 249 582 243 q 576 231 572 212 q 568 193 563 171 l 550 102 q 548 92 548 86 q 549 80 551 75 q 552 69 552 66 q 552 62 548 57 q 543 52 530 45 q 508 34 481 22 q 454 9 415 0 q 376 -8 316 -8 q 241 -8 182 28 q 124 65 91 126 q 58 187 58 259 q 58 351 91 424 q 124 497 180 548 q 236 599 307 626 q 378 652 454 650 q 497 649 536 642 q 575 634 611 625 q 610 608 608 580 q 607 551 605 524 q 603 497 602 482 q 602 478 594 478 q 590 478 584 478 q 577 479 571 482 z"},"q":{"x_min":0,"x_max":416,"ha":416,"o":"m 310 -223 q 300 -223 290 -222 q 281 -222 271 -222 q 228 -222 190 -224 q 151 -226 124 -229 q 123 -227 123 -215 q 123 -203 127 -203 q 148 -201 168 -194 q 189 -186 193 -167 l 248 127 q 241 114 226 92 q 210 70 190 48 q 170 26 148 10 q 125 -5 104 -5 q 74 -5 55 12 q 36 30 28 58 q 19 85 19 113 q 19 170 44 226 q 69 281 110 326 q 151 371 200 398 q 248 425 296 425 q 322 425 340 421 q 359 417 373 412 l 313 104 q 313 103 308 78 q 304 52 298 14 q 291 -23 284 -60 q 278 -96 274 -121 q 269 -146 269 -146 q 268 -152 268 -157 q 267 -162 267 -167 q 267 -177 274 -186 q 280 -196 312 -196 q 315 -196 314 -208 q 314 -221 310 -223 z m 289 333 q 292 350 284 368 q 275 386 255 386 q 225 386 196 364 q 167 343 144 308 q 120 273 106 230 q 91 188 91 146 q 91 106 102 79 q 114 52 141 52 q 160 52 180 72 q 201 93 220 126 q 240 158 255 196 q 270 234 277 270 z"},"d":{"x_min":0,"x_max":438,"ha":438,"o":"m 331 546 q 333 560 336 575 q 340 590 340 598 q 340 607 329 611 q 318 615 304 616 q 291 616 282 616 q 281 616 280 616 q 278 619 280 626 q 281 634 284 637 q 325 641 361 652 q 397 663 413 669 q 417 667 418 661 q 419 655 419 650 q 419 644 414 620 q 410 595 406 577 l 314 104 q 313 101 312 88 q 311 75 311 71 q 311 70 311 69 q 311 62 312 55 q 313 48 320 48 q 331 48 346 62 q 362 75 375 89 q 388 103 389 104 q 391 104 394 98 q 398 91 398 86 q 394 79 380 64 q 367 49 348 33 q 329 17 308 6 q 288 -6 271 -6 q 255 -6 246 8 q 237 23 237 45 q 237 51 239 66 q 241 81 244 97 q 247 111 248 116 q 248 122 249 127 q 243 116 228 94 q 214 73 193 50 q 172 27 149 11 q 126 -5 104 -5 q 74 -5 55 12 q 36 30 28 58 q 19 85 19 113 q 19 170 44 226 q 69 281 110 326 q 151 371 200 398 q 248 425 296 425 l 309 425 z m 289 333 q 292 350 284 368 q 275 386 255 386 q 225 386 196 364 q 167 343 144 308 q 120 273 106 230 q 91 188 91 146 q 91 106 102 79 q 114 52 141 52 q 160 52 180 72 q 201 93 220 126 q 240 158 255 196 q 270 234 277 270 z"},"1":{"x_min":0,"x_max":532,"ha":532,"o":"m 241 113 l 241 508 q 241 529 236 537 q 232 545 221 545 q 210 545 187 538 q 164 530 152 525 q 143 532 143 542 q 143 542 143 543 q 143 547 145 548 q 185 566 224 584 q 262 603 288 615 q 313 627 314 627 l 316 627 q 321 627 323 621 q 325 615 326 611 q 326 611 322 586 q 318 562 318 517 l 318 113 q 318 91 318 72 q 319 53 323 41 q 325 36 338 32 q 351 28 366 26 q 380 25 386 25 q 389 21 390 11 q 390 1 386 -3 q 356 -1 331 0 q 306 2 277 2 q 249 2 226 0 q 203 -1 173 -3 q 169 1 170 11 q 170 21 173 25 q 179 25 194 26 q 208 28 221 32 q 234 36 235 41 q 239 53 240 72 q 241 91 241 113 z"},"5":{"x_min":0,"x_max":532,"ha":532,"o":"m 266 386 q 324 386 364 360 q 405 334 427 294 q 449 255 449 213 q 449 163 428 122 q 406 82 370 54 q 335 25 291 10 q 247 -5 201 -5 q 182 -5 154 0 q 125 6 102 18 q 98 21 90 32 q 82 43 82 55 q 82 76 94 89 q 107 102 123 102 q 143 102 154 86 q 166 71 178 59 q 192 45 212 40 q 231 34 250 34 q 276 34 302 48 q 329 63 347 96 q 365 130 365 186 q 365 217 350 250 q 334 284 300 308 q 266 331 209 331 q 193 331 166 326 q 139 322 127 316 q 124 316 122 320 q 119 325 119 330 q 130 385 141 440 q 152 495 162 542 q 171 590 176 620 l 320 620 q 340 620 361 622 q 382 624 396 626 q 410 629 410 629 q 415 626 418 624 q 422 622 422 618 q 422 615 418 602 q 415 590 408 575 q 402 560 393 549 q 373 547 345 545 q 317 543 279 543 l 197 543 q 188 499 180 454 q 171 408 162 367 q 182 375 214 380 q 247 386 266 386 z"}}}
